<svg xmlns="http://www.w3.org/2000/svg" width="1024" height="1024" version="1.1" viewBox="0 0 1024 1024"><path transform="translate(534.28 106.93)" d="m0 0c8.0745 6.1371 14.959 13.747 20.719 22.066 0.35191-0.54527 0.70383-1.0905 1.0664-1.6523 15.972-24.395 15.972-24.395 25.93-24.727 14.904 2.8181 21.298 26.26 26.004 38.379 0.67482-0.74443 0.67482-0.74443 1.3633-1.5039 8.3835-8.8539 18.064-16.294 30.637-15.496 6.5445 1.8179 8.7028 9.2626 10.25 15.188 2.3205 9.229 2.1198 18.362 1.75 27.812 0.94102-0.5543 1.882-1.1086 2.8516-1.6797 1.2576-0.73206 2.5155-1.4638 3.7734-2.1953 0.61746-0.3648 1.2349-0.72961 1.8711-1.1055 5.5143-3.1925 10.597-5.3006 17.066-5.457 0.90879-0.039961 1.8176-0.079922 2.7539-0.12109 3.9164 0.8152 5.3193 2.374 7.6836 5.5586 0.49344 2.8319 0.67041 4.9389 0.5625 7.75-0.017322 0.74371-0.034644 1.4874-0.05249 2.2537-0.62574 15.134-5.8022 28.581-12.51 41.996-2.4131-0.23678-4.8242-0.48017-7.2344-0.74609-2.6581-0.29244-2.6581-0.29244-4.9062-0.22656-6.2397-0.083355-10.66-3.0683-15.777-6.3013-7.3664-4.6302-15.093-8.3028-23.083-11.726-1.3361-0.57621-1.3361-0.57621-2.6992-1.1641-17.754-6.4504-36.68-0.32191-50.703 11.125-17.505 16.098-23.516 41.203-18.898 64.117 4.815 17.147 16.32 28.685 32.301 35.922-0.43439 4.8226-2.7436 7.585-5.9375 11-0.73501 0.79229-0.73501 0.79229-1.4849 1.6006-5.3374 5.521-11.556 10.142-19.578 9.3994-4.5827-4.419-4.1174-10.012-4-16-0.98227 0.43313-0.98227 0.43313-1.9844 0.875-7.4983 3.0501-16.777 5.9511-24.016 1.125-2.4577-9.457 2.7333-17.935 7-26-21.552 2.7656-36.147 17.318-44.648 36.48-8.6729 22.585-9.9939 49.738-1.3516 72.52 0.26764 0.70786 0.53528 1.4157 0.81104 2.145 15.263 39.189 44.555 59.963 81.873 76.105 20.081 8.7014 39.397 18.599 57.629 30.75 1.0235 0.66697 1.0235 0.66697 2.0676 1.3474 4.6199 3.1764 4.6199 3.1764 4.6199 7.6526-2.9305-0.60078-5.0077-1.4744-7.4766-3.1523-0.66193-0.44199-1.3239-0.88397-2.0059-1.3394-0.70705-0.47711-1.4141-0.95423-2.1426-1.4458-8.1776-5.4108-16.599-10.225-25.219-14.89-3.7336-2.0308-7.4442-4.103-11.156-6.1729-0.1057 0.85336-0.21141 1.7067-0.32031 2.5859-3.4287 17.223-17.351 31.446-33.492 37.289-3.1355 0.95067-5.8871 1.4444-9.1875 1.125 0.43699-3.7566 0.43699-3.7566 2.9336-4.8359 0.82629-0.17789 1.6526-0.35578 2.5039-0.53906 5.8978-1.5463 10.522-4.2558 15.562-7.625 1.3303-0.86625 1.3303-0.86625 2.6875-1.75 6.7338-6.5518 12.12-15.245 14.364-24.386 0.4695-1.9126 0.4695-1.9126 0.94849-3.8638-1.0487-0.46374-2.0973-0.92748-3.1777-1.4053-3.9221-1.7351-7.843-3.4726-11.764-5.2109-1.6911-0.74938-3.3825-1.4981-5.0742-2.2461-2.4435-1.0806-4.8859-2.1636-7.3281-3.2471-0.74617-0.32934-1.4923-0.65867-2.2611-0.99799-4.8712-2.1648-9.6423-4.4787-14.395-6.8926-0.36352 0.64066-0.72703 1.2813-1.1016 1.9414-8.7038 14.975-21.474 25.574-38.898 29.059-2.9375-0.375-2.9375-0.375-5-1 1.4448-4.3345 4.3177-4.1869 8.375-5.25 15.306-4.4062 25.034-12.931 32.625-26.75-2.4338-1.9513-4.8703-3.8982-7.3242-5.8242-21.485-16.939-38.989-38.109-45.676-65.176-0.52465 0.21656-1.0493 0.43312-1.5898 0.65625-15.361 5.5209-32.929 3.3463-45.801-6.7773-1.9357-2.2599-2.2687-3.9585-2.6094-6.8789 3.6981 0 4.016 1.0079 6.4141 3.5586 11.063 10.055 27.004 8.8406 40.586 5.4414-0.068562-0.54785-0.13712-1.0957-0.20776-1.6602-0.88222-7.7718-1.0749-15.523-1.1047-23.34-0.0029507-0.68265-0.0059015-1.3653-0.0089417-2.0686-0.014-14.268 2.1734-26.611 7.3214-39.931-1.2626 0.063809-1.2626 0.063809-2.5508 0.12891-14.855-0.55516-31.791-10.214-38.949-23.316-1.5253-3.0199-1.5821-4.6018-0.5-7.8125 3.899 1.2997 4.0076 2.5608 5.75 6.1875 6.9695 13.204 20.275 17.662 34.25 20.812h4c0.25652-0.53367 0.51305-1.0673 0.77734-1.6172 3.4637-6.7407 7.9958-11.938 13.223-17.383 0.53496-0.57492 1.0699-1.1498 1.6211-1.7422 3.1014-3.2578 3.1014-3.2578 5.3789-3.2578-2.8539-3.0678-5.715-5.1805-9.3125-7.3125-11.976-7.5268-18.924-17.27-18.688-31.688h3c0.094746 0.89139 0.094746 0.89139 0.19141 1.8008 1.9871 13.449 9.8073 20.97 20.809 28.199 0.71027 0.48855 1.4205 0.97711 2.1523 1.4805 4.5094 2.8911 7.1721 2.8573 11.848 0.51953-0.5427-0.25395-1.0854-0.50789-1.6445-0.76953-0.71543-0.34418-1.4309-0.68836-2.168-1.043-0.7077-0.33645-1.4154-0.67289-2.1445-1.0195-3.6259-2.0729-3.6259-2.0729-5.043-4.168 0.22342-10.277 10.886-17.281 19-22-2.8583-2.2312-5.7894-4.0803-8.9375-5.875-5.3996-3.2048-11.048-6.9551-12.625-13.438 1.7419-8.3225 12.595-11.067 19.562-13.688 1.6679-0.66353 3.335-1.3291 5-2-0.47051-0.56848-0.94102-1.137-1.4258-1.7227-10.067-12.485-10.067-12.485-8.5742-21.277 4.6785-4.0405 8.743-5.1363 14.766-5.0977 1.3342 0.004834 1.3342 0.004834 2.6953 0.0097656 1.3806 0.012568 1.3806 0.012568 2.7891 0.025391 1.4038 0.0067676 1.4038 0.0067676 2.8359 0.013672 2.3048 0.011759 4.6094 0.028194 6.9141 0.048828-0.21656-0.60328-0.43313-1.2066-0.65625-1.8281-0.41766-1.1988-0.41766-1.1988-0.84375-2.4219-0.41766-1.1834-0.41766-1.1834-0.84375-2.3906-0.65625-2.3594-0.65625-2.3594-0.65625-6.3594-4.3984 0.56507-8.793 1.1555-13.188 1.75-1.2265 0.15727-2.4531 0.31453-3.7168 0.47656-7.3217 1.0046-14.168 2.4956-21.187 4.8188-2.9473 0.96719-5.9117 1.7826-8.9089 2.5796-21.138 6.5514-39.771 18.553-56 33.375-0.52803 0.47744-1.0561 0.95487-1.6001 1.4468-26.505 24.266-42.766 57.544-49.4 92.553-0.16226 0.81598-0.32452 1.632-0.4917 2.4727-5.3592 27.919-3.7193 56.942 2.4917 84.527l0.5166 2.3491c0.96735 4.2853 2.165 8.4616 3.4834 12.651l0.70947 2.3218c12.314 40.061 34.282 77.522 64.439 106.83 1.8516 1.8516 1.8516 1.8516 3.9141 4.4766 2.2896 2.8067 4.8525 5.0111 7.6055 7.3555 2.6301 2.2777 5.162 4.6473 7.707 7.0195 4.9113 4.4923 10.062 8.3557 15.625 12-4.4899 13.092-18.898 25.884-32.199 29.617-6.2307 0.61206-10.081-3.1634-13.801-7.6172-7.6524-11.697-9.2221-25.356-9-39-1.5237 0.70576-1.5237 0.70576-3.0781 1.4258-28.124 12.816-28.124 12.816-40.422 6.8867-9.812-9.0761-8.8831-21.037-6.1648-33.316 1.1732-4.8829 2.3167-9.5215 4.6648-13.997-1.8698 0.48146-1.8698 0.48146-3.7773 0.97266-5.6046 1.238-11.062 1.4312-16.785 1.4648-0.98936 0.032871-1.9787 0.065742-2.998 0.099609-7.0066 0.051143-13.75-1.0567-17.634-7.5271-5.6587-14.118 4.5287-32.512 12.194-44.01-0.93199 0.046406-1.864 0.092812-2.8242 0.14062-12.217 0.34588-25.826-1.0327-34.176-11.141-4.4507-13.352 4.64-24.404 13-34 0.68191-0.79148 1.3638-1.583 2.0664-2.3984 1.6318-1.8791 3.2751-3.7461 4.9336-5.6016-1.155-0.10055-2.31-0.20109-3.5-0.30469-4.5278-0.57195-8.3547-1.9589-12.5-3.8203-0.69625-0.30913-1.3925-0.61827-2.1099-0.93677-8.0539-3.729-15.105-8.2486-16.39-17.563 0.48-15.219 18.302-25.745 29.5-33.375-0.82242-0.4125-1.6448-0.825-2.4922-1.25-23.381-12.095-23.381-12.095-26.508-23.75 0.53047-12.466 12.82-19.657 22.688-24.938 0.72469-0.3897 1.4494-0.7794 2.196-1.1809 4.0406-2.0817 7.5269-3.4263 12.116-3.8816-2.6032-2.6223-5.2206-5.2197-7.9023-7.7617-16.963-16.234-16.963-16.234-15.098-27.238 8.5723-13.041 30.646-16.392 45-17-0.65227-0.92039-1.3045-1.8408-1.9766-2.7891-16.177-23.25-16.177-23.25-14.023-34.211 6.2137-10.291 16.796-9.4233 27.625-9.25 1.9452 0.0077344 1.9452 0.0077344 3.9297 0.015625 5.6068 0.046147 10.923 0.1932 16.445 1.2344-0.5066-1.2684-0.5066-1.2684-1.0234-2.5625-1.3629-3.4662-2.6826-6.945-3.9766-10.438-0.25652-0.68707-0.51305-1.3741-0.77734-2.082-1.4212-4.5956-1.4877-9.3266-1.5977-14.105-0.026184-0.69005-0.052368-1.3801-0.079346-2.0911-0.018741-5.7272 1.6442-8.8499 6.3958-12.014 13.053-4.483 29.602 3.2472 42.059 7.293-0.020947-0.70496-0.041895-1.4099-0.063477-2.1362-0.084011-3.2461-0.13545-6.492-0.18652-9.7388-0.033516-1.1086-0.067031-2.2172-0.10156-3.3594-0.099654-8.4706 1.0782-15.6 6.4141-22.391 12.003-5.6186 24.615 2.3753 34.523 8.9141 2.0555 1.4568 3.9981 2.9531 5.9141 4.5859 2.3828 2.2934 2.3828 2.2934 5.5 3.125-0.043828-1.0042-0.087656-2.0084-0.13281-3.043 0.33038-9.8433 5.277-24.758 13.59-30.719 6.3632-3.0985 12.358 0.19488 17.824 3.6953z" fill="#0d509b"/><path transform="translate(630,511)" d="m0 0 6 3c0.33-0.99 0.66-1.98 1-3v2c0.66 0.20625 1.32 0.4125 2 0.625 4.1161 1.8865 7.4588 4.5807 11 7.375 0.73605-0.48211 1.4721-0.96422 2.2305-1.4609 0.97582-0.63164 1.9516-1.2633 2.957-1.9141 0.96293-0.62648 1.9259-1.253 2.918-1.8984 6.8418-4.0811 14.576-5.7581 22.277-2.8164 8.8969 5.2603 12.092 11.448 12.035 21.613-0.84927 7.0641-4.5998 12.505-10.418 16.477 1.3555 2.8602 2.8941 5.403 4.7227 7.9844 10.631 15.169 21.367 31.286 27.277 49.016 2.3173 1.627 2.3173 1.627 5.125 3.1875 14.311 8.8607 19.052 21.268 19.062 37.5 0.012246 0.94295 0.024492 1.8859 0.037109 2.8574 0.011616 5.6339-0.53945 10.776-1.7595 16.274-1.5561 7.2985-1.5032 15.258 3.5349 21.181 2.3378 1.4818 4.3193 2.1752 7 3 0.165-1.155 0.33-2.31 0.5-3.5 1.0828-4.9353 3.1199-9.202 5.375-13.688 0.33967-0.67676 0.67934-1.3535 1.0293-2.0508 8.1215-15.779 8.1215-15.779 17.471-16.262 8.3965 0.46569 13.184 4.1002 17.504 11.172 1.5423 3.2029 1.9706 5.7913 2.1211 9.3281h-2c0.495 0.76312 0.99 1.5262 1.5 2.3125 2.3083 5.6746 2.4454 11.851 0.5 17.688h-2c-0.33-3.63-0.66-7.26-1-11-10.108-0.82077-15.353-0.4009-21.387 7.9102-5.3673 8.6231-7.9061 19.124-8.3398 29.199-0.27344 1.8906-0.27344 1.8906-2.2734 3.8906-1.0291 7.0565 1.9814 13.981 7 19-7.6576-0.31256-12.132-3.5864-15.812-10.312-1.1507-3.5731-2.0358-7.0898-2.7578-10.77-0.36466-1.9886-0.36466-1.9886-1.4297-3.918 0.081211-0.62133 0.16242-1.2427 0.24609-1.8828 0.30565-3.5805 0.19408-6.0436-2.8594-8.3198-4.6052-2.6748-9.4718-4.7638-14.387-6.7974 0.069609 1.4057 0.069609 1.4057 0.14062 2.8398 0.43773 13.334-1.6791 26.089-4.1406 39.16-0.1389 0.76248-0.27779 1.525-0.4209 2.3105-3.9581 21.13-12.103 42.452-21.579 61.689-0.69609 1.4173-0.69609 1.4173-1.4062 2.8633-7.6581 14.671-17.004 28.446-27.594 41.137-0.46874 0.57025-0.93747 1.1405-1.4204 1.728-26.571 32.272-26.571 32.272-33.58 32.272v2h-2v2c-0.9075 0.47438-1.815 0.94875-2.75 1.4375-3.3851 1.9238-6.3714 4.1662-9.4375 6.5625-13.009 9.8211-27.239 17.421-41.875 24.5-0.91844 0.44598-0.91844 0.44598-1.8554 0.90097-9.7827 4.7299-19.68 8.5217-29.996 11.888-1.9067 0.64985-3.7804 1.3947-5.6484 2.1484-11.574 4.3775-24.258 6.609-36.438 8.5625-1.2813 0.20754-2.5627 0.41508-3.8828 0.62891-48.93 7.0273-101.06-3.02-145.12-24.629-0.66258-0.32436-1.3252-0.64872-2.0078-0.98291-16.002-7.9477-31.173-17.702-44.992-29.017-0.52755-0.43135-1.0551-0.86271-1.5986-1.3071-18.072-14.846-34.375-30.935-48.401-49.693-0.41846-0.55623-0.83692-1.1125-1.2681-1.6855-15.365-20.55-27.771-42.975-36.825-66.97-0.61118-1.5809-1.2481-3.152-1.9087-4.7129-2.7863-6.6116-4.5698-13.275-6.1853-20.257l-0.78711-3.2734c-2.0459-8.67-3.1789-16.959-3.2285-25.852-0.0085501-1.2246-0.0085501-1.2246-0.017273-2.4739-0.0093921-1.7211-0.015961-3.4422-0.019836-5.1633-0.0096367-2.5783-0.040687-5.1558-0.072266-7.7339-0.092092-14.171 1.563-27.403 6.4375-40.816 0.2935-0.82484 0.58701-1.6497 0.8894-2.4995 7.3701-19.947 7.3701-19.947 13.986-26.563h3c-0.57822 4.9006-2.7975 8.4805-5.1875 12.688-3.2773 5.9925-6.0271 11.955-8.1875 18.438-0.33874 0.99906-0.33874 0.99906-0.68433 2.0183-4.3003 13.542-5.5234 26.636-5.4407 40.732 0.0027594 0.85494 0.0055188 1.7099 0.0083618 2.5907 0.16044 27.023 5.5543 62.44 22.492 84.534 2.2871 0.94087 2.2871 0.94087 5 1 1.1163 0.078633 2.2327 0.15727 3.3828 0.23828 10.989 0.21795 20.215-0.94059 28.18-9.1641 1.4375-1.0742 1.4375-1.0742 4.4375-0.074219-1.483 3.7614-3.5043 5.3733-6.8125 7.625-0.85207 0.59039-1.7041 1.1808-2.582 1.7891-8.8576 5.3916-19.64 5.8566-29.605 3.5859 11.439 20.132 23.599 39.493 39.543 56.395 2.0925 2.2189 4.1012 4.4752 6.082 6.793 6.295 7.2198 13.105 13.601 20.586 19.578 1.7758 1.4226 3.5334 2.8684 5.2656 4.3438 5.8844 4.9917 12.041 9.5571 18.336 14.016 0.81275 0.59329 1.6255 1.1866 2.4629 1.7979 5.8558 4.139 5.8558 4.139 12.725 3.0771 7.364-3.6063 11.003-10.164 15-17 1.219-1.9854 2.448-3.9648 3.6875-5.9375 0.54012-0.87527 1.0802-1.7505 1.6367-2.6523 1.6899-2.4304 3.5218-4.3876 5.6758-6.4102 0.99 0.33 1.98 0.66 3 1-1.4594 3.1335-3.2262 5.8264-5.25 8.625-2.4195 3.3973-4.6242 6.814-6.6875 10.438-4.1152 6.976-8.9127 12.985-16.062 16.938 25.205 14.119 51.727 24.011 80.133 29.238 3.8672 0.76172 3.8672 0.76172 5.8672 1.7617-0.16113-0.66-0.32227-1.32-0.48828-2-2.5124-14.729-0.15824-30.322 5.4883-44h4c-0.29004 0.81791-0.29004 0.81791-0.58594 1.6523-0.26039 0.7541-0.52078 1.5082-0.78906 2.2852-0.25523 0.7309-0.51047 1.4618-0.77344 2.2148-2.4456 8.1783-3.1386 15.616-3.0391 24.16 6.4453e-4 1.0706 0.0012891 2.1411 0.0019531 3.2441-0.0059123 6.296-0.0059123 6.296 1.1855 12.443 12.559 1.9821 24.809 2.2433 37.5 2.125 1.9023-0.010062 3.8047-0.019182 5.707-0.027344 4.5978-0.021732 9.1953-0.05608 13.793-0.097656-0.013696-1.2532-0.027393-2.5064-0.041504-3.7976-0.25594-23.419 19.901-42.606 38.354-53.769 2.6875-1.4336 2.6875-1.4336 4.6875-1.4336v-12c1.32-0.33 2.64-0.66 4-1v9c18.476-8.6348 36.256-18.991 52-32 0.91266-0.72316 1.8253-1.4463 2.7656-2.1914 19.864-15.863 37.143-34.136 50.359-55.934 0.36634-0.60312 0.73267-1.2062 1.1101-1.8276 2.0982-3.5753 3.5934-7.0739 4.7649-11.047-1.4541-1.0828-1.4541-1.0828-2.9375-2.1875-2.866-2.3602-3.8445-3.9978-4.0625-7.8125 5.1831 0 4.5837 0.87213 7 5 2.0413 0.69298 2.0413 0.69298 4 1 0.39188-1.2169 0.78375-2.4337 1.1875-3.6875 0.88874-2.6994 1.8224-5.3363 2.9141-7.9609 3.0559-7.3538 5.1602-14.756 7.0859-22.477 0.24984-1.001 0.49967-2.0021 0.75708-3.0334 10.781-44.327 6.815-91.23-17.863-130.13-1.7316-2.7346-3.4148-5.496-5.0815-8.2705-0.55687-0.90879-1.1137-1.8176-1.6875-2.7539-1.4281-2.9199-1.9349-5.4692-2.3125-8.6836h-9v-4c1.98-0.33 3.96-0.66 6-1-0.58638-4.0653-1.1972-8.1265-1.8125-12.188-0.24847-1.7257-0.24847-1.7257-0.50195-3.4863-0.1708-1.1118-0.3416-2.2236-0.51758-3.3691-0.15187-1.0212-0.30374-2.0424-0.46021-3.0945-0.761-3.0779-2.0551-5.1813-3.7078-7.8625v-3h-4c0.32742 0.54141 0.65484 1.0828 0.99219 1.6406 1.2245 2.8666 1.2067 5.0047 1.1328 8.1094-0.018047 0.98484-0.036094 1.9697-0.054688 2.9844-0.034805 1.1215-0.034805 1.1215-0.070312 2.2656-3.701-1.2337-5.2681-3.2681-8-6-5.1377-1.7126-9.9478-2.0075-14.449 1.4141-5.5168 5.6419-9.053 11.728-9.3086 19.637-0.38244 3.078-2.1122 4.8193-4.2422 6.9492 0.99 0.33 1.98 0.66 3 1-8.6355 0.5757-8.6355 0.5757-12-4-0.33-0.66-0.66-1.32-1-2-4.8176 0.59523-8.4587 2.6727-12.625 5-7.7811 4.2961-15.114 7.5808-23.688 3.375-7.1332-6.3038-9.7645-11.787-8.6875-21.375 2.5689-5.1379 6.9958-10.461 13.031-11.273 6.3448-0.26102 10.197 1.1262 15.727 4.1406 5.6834 2.8714 9.2635 0.89531 14.191-2.2622 3.4755-2.72 5.6269-6.1728 7.9883-9.855 7.8445-11.63 13.887-20.254 28.938-19.875 1.0325 0.013535 1.0325 0.013535 2.0859 0.027344 1.6798 0.023331 3.3595 0.059193 5.0391 0.097656-0.069609-0.78504-0.13922-1.5701-0.21094-2.3789-0.39103-7.5879 0.30998-11.633 6.2109-16.621z" fill="#c9ced3"/><path transform="translate(391.94 283.94)" d="m0 0c0.97002 0.0045117 1.94 0.0090234 2.9395 0.013672 2.3744 0.011697 4.7487 0.028087 7.123 0.048828-0.18756 0.62326-0.37512 1.2465-0.56836 1.8887-0.8124 2.7032-1.6223 5.4072-2.4316 8.1113-0.33064 1.1002-0.33064 1.1002-0.66797 2.2227-3.3187 11.14-5.8258 22.245-7.332 33.777-0.094263 0.71374-0.18853 1.4275-0.28564 2.1628-2.8334 24.408-1.0944 48.943 4.2856 72.837 0.17048 0.77521 0.34096 1.5504 0.5166 2.3491 0.96735 4.2853 2.165 8.4616 3.4834 12.651 0.23413 0.76619 0.46825 1.5324 0.70947 2.3218 12.314 40.061 34.282 77.522 64.439 106.83 1.8516 1.8516 1.8516 1.8516 3.9141 4.4766 2.2896 2.8067 4.8525 5.0111 7.6055 7.3555 2.6301 2.2777 5.162 4.6473 7.707 7.0195 4.9113 4.4923 10.062 8.3557 15.625 12-4.4899 13.092-18.898 25.884-32.199 29.617-6.2307 0.61206-10.081-3.1634-13.801-7.6172-7.6524-11.697-9.2221-25.356-9-39-1.5237 0.70576-1.5237 0.70576-3.0781 1.4258-28.124 12.816-28.124 12.816-40.422 6.8867-9.812-9.0761-8.8831-21.037-6.1648-33.316 1.1732-4.8829 2.3167-9.5215 4.6648-13.997-1.8698 0.48146-1.8698 0.48146-3.7773 0.97266-5.6046 1.238-11.062 1.4312-16.785 1.4648-0.98936 0.032871-1.9787 0.065742-2.998 0.099609-7.0066 0.051143-13.75-1.0567-17.634-7.5271-5.6587-14.118 4.5287-32.512 12.194-44.01-0.93199 0.046406-1.864 0.092813-2.8242 0.14062-12.217 0.34588-25.826-1.0327-34.176-11.141-4.4507-13.352 4.64-24.404 13-34 0.68191-0.79148 1.3638-1.583 2.0664-2.3984 1.6318-1.8791 3.2751-3.7461 4.9336-5.6016-1.155-0.10055-2.31-0.20109-3.5-0.30469-4.5278-0.57195-8.3547-1.9589-12.5-3.8203-0.69625-0.30913-1.3925-0.61827-2.1099-0.93677-8.0539-3.729-15.105-8.2486-16.39-17.563 0.48-15.219 18.302-25.745 29.5-33.375-1.2336-0.61875-1.2336-0.61875-2.4922-1.25-23.381-12.095-23.381-12.095-26.508-23.75 0.53047-12.466 12.82-19.657 22.688-24.938 0.72469-0.3897 1.4494-0.7794 2.196-1.1809 4.0882-2.1062 7.5276-3.2119 12.116-3.8816 0.33-0.66 0.66-1.32 1-2 2.7124-0.78643 5.3719-1.4571 8.125-2.0625 0.74766-0.17338 1.4953-0.34676 2.2656-0.52539 8.2588-1.8777 16.089-2.5498 24.547-2.4746z" fill="#0d509b"/><path transform="translate(630,511)" d="m0 0 6 3c0.33-0.99 0.66-1.98 1-3v2c0.99 0.30938 0.99 0.30938 2 0.625 4.1161 1.8865 7.4588 4.5807 11 7.375 1.1041-0.72316 1.1041-0.72316 2.2305-1.4609 0.97582-0.63164 1.9516-1.2633 2.957-1.9141 0.96293-0.62648 1.9259-1.253 2.918-1.8984 6.8418-4.0811 14.576-5.7581 22.277-2.8164 8.8969 5.2603 12.092 11.448 12.035 21.613-0.84927 7.0641-4.5998 12.505-10.418 16.477 1.3555 2.8602 2.8941 5.403 4.7227 7.9844 10.631 15.169 21.367 31.286 27.277 49.016 2.3173 1.627 2.3173 1.627 5.125 3.1875 14.311 8.8607 19.052 21.268 19.062 37.5 0.012246 0.94295 0.024492 1.8859 0.037109 2.8574 0.011616 5.6339-0.53945 10.776-1.7595 16.274-1.5561 7.2985-1.5032 15.258 3.5349 21.181 2.3378 1.4818 4.3193 2.1752 7 3 0.165-1.155 0.33-2.31 0.5-3.5 1.0828-4.9353 3.1199-9.202 5.375-13.688 0.5095-1.0151 0.5095-1.0151 1.0293-2.0508 8.1215-15.779 8.1215-15.779 17.471-16.262 8.3965 0.46569 13.184 4.1002 17.504 11.172 1.5423 3.2029 1.9706 5.7913 2.1211 9.3281h-2c0.495 0.76312 0.99 1.5262 1.5 2.3125 2.3083 5.6746 2.4454 11.851 0.5 17.688h-2c-0.33-3.63-0.66-7.26-1-11-10.108-0.82077-15.353-0.4009-21.387 7.9102-5.3673 8.6231-7.9061 19.124-8.3398 29.199-0.27344 1.8906-0.27344 1.8906-2.2734 3.8906-1.0291 7.0565 1.9814 13.981 7 19-7.6576-0.31256-12.132-3.5864-15.812-10.312-1.1507-3.5731-2.0358-7.0898-2.7578-10.77-0.36466-1.9886-0.36466-1.9886-1.4297-3.918 0.081211-0.62133 0.16242-1.2427 0.24609-1.8828 0.30565-3.5805 0.19408-6.0436-2.8594-8.3198-4.6052-2.6748-9.4718-4.7638-14.387-6.7974v13c-16.31 5.4365-32.322-2.0399-46-11-0.63478-0.30704-1.2696-0.61408-1.9236-0.93042-4.5332-2.474-5.5388-4.5292-5.9084-9.6829-0.024768-2.2329-0.016581-4.4664 0.019531-6.6992-0.027947-2.362-0.060484-4.724-0.097656-7.0859-0.010474-1.1405-0.020947-2.281-0.031738-3.4561-0.46642-25.249-9.5871-49.33-22.977-70.438-1.7316-2.7346-3.4148-5.496-5.0815-8.2705-0.55687-0.90879-1.1137-1.8176-1.6875-2.7539-1.4281-2.9199-1.9349-5.4692-2.3125-8.6836h-9v-4c1.98-0.33 3.96-0.66 6-1-0.58638-4.0653-1.1972-8.1265-1.8125-12.188-0.16564-1.1505-0.33129-2.301-0.50195-3.4863-0.1708-1.1118-0.3416-2.2236-0.51758-3.3691-0.2278-1.5318-0.2278-1.5318-0.46021-3.0945-0.761-3.0779-2.0551-5.1813-3.7078-7.8625v-3h-4c0.49113 0.81211 0.49113 0.81211 0.99219 1.6406 1.2245 2.8666 1.2067 5.0047 1.1328 8.1094-0.018047 0.98484-0.036094 1.9697-0.054688 2.9844-0.023203 0.74766-0.046406 1.4953-0.070312 2.2656-3.701-1.2337-5.2681-3.2681-8-6-5.1377-1.7126-9.9478-2.0075-14.449 1.4141-5.5168 5.6419-9.053 11.728-9.3086 19.637-0.38244 3.078-2.1122 4.8193-4.2422 6.9492 0.99 0.33 1.98 0.66 3 1-8.6355 0.5757-8.6355 0.5757-12-4-0.33-0.66-0.66-1.32-1-2-4.8176 0.59523-8.4587 2.6727-12.625 5-7.7811 4.2961-15.114 7.5808-23.688 3.375-7.1332-6.3038-9.7645-11.787-8.6875-21.375 2.5689-5.1379 6.9958-10.461 13.031-11.273 6.3448-0.26102 10.197 1.1262 15.727 4.1406 5.6834 2.8714 9.2635 0.89531 14.191-2.2622 3.4755-2.72 5.6269-6.1728 7.9883-9.855 7.8445-11.63 13.887-20.254 28.938-19.875 1.0325 0.013535 1.0325 0.013535 2.0859 0.027344 1.6798 0.023331 3.3595 0.059193 5.0391 0.097656-0.069609-0.78504-0.13922-1.5701-0.21094-2.3789-0.39103-7.5879 0.30998-11.633 6.2109-16.621z" fill="#c9ced3"/><path transform="translate(433,678)" d="m0 0c9.3038 2.85 17.073 8.1208 24.625 14.125 9.4 7.4641 18.691 12.104 30.836 12.289 0.79057 0.019366 1.5811 0.038732 2.3957 0.058685 2.506 0.059413 5.0121 0.10603 7.5184 0.15225 1.7071 0.038215 3.4141 0.077269 5.1211 0.11719 4.1678 0.095643 8.3357 0.17981 12.504 0.25781 0.32396 0.81477 0.64792 1.6295 0.98169 2.469 0.65295 1.6106 0.65295 1.6106 1.3191 3.2537 0.42708 1.0623 0.85417 2.1245 1.2942 3.219 3.8427 8.3645 10.962 15.112 20.371 16.308 8.2084 0.59956 16.562 0.53945 24.034-3.25 0.68191-0.34031 1.3638-0.68062 2.0664-1.0312 12.364-6.9446 18.909-20.852 22.934-33.969h2c3.5524 13.952 2.2226 32.929-6 45-4.509 4.2836-8.2058 6.2826-14.438 6.1875-1.3903-0.009668-1.3903-0.009668-2.8086-0.019531-2.6711-0.16292-5.1473-0.57664-7.7539-1.168-1.3776 9.6883-1.8362 17.394 5.625 24.5 4.2907 2.7099 7.7125 2.6833 12.688 2.6875 0.7599 0.012246 1.5198 0.024492 2.3027 0.037109 4.3047 0.01122 7.4234-0.3731 11.385-2.2246 4.344-0.42588 7.6707 0.13593 11.75 1.5 9.8939 3.1078 17.433 2.647 25.25-4.5 12.726-13.024 20.189-33.289 23-51h1c1.2737 24.201-11.042 46.875-26 65-1.0809 1.3303-1.0809 1.3303-2.1836 2.6875-6.316 7.4169-14.044 14.179-22.645 18.848-2.5926 1.7486-2.6448 2.4936-3.1719 5.4648-5.3448 7.2183-13.902 12.62-21 18-0.57702 0.44312-1.154 0.88623-1.7485 1.3428-8.3034 6.3456-16.826 11.32-26.293 15.732-1.8616 0.87904-3.6979 1.7961-5.5327 2.7295-10.741 5.3172-21.945 8.8228-33.426 12.195-1.1009 0.33-2.2017 0.66-3.3359 1-2.8754 0.79094-5.738 1.4228-8.6641 2-0.63905 0.1339-1.2781 0.2678-1.9365 0.40576-27.134 5.4799-56.327 4.2453-83.063-2.4058-0.93683-0.22462-1.8737-0.44924-2.8389-0.68066-24.52-5.9885-53.057-17.082-72.165-34.104-2.7766-1.6898-3.9736-1.2854-6.9961-0.21484-10.177 6.3224-16.13 14.217-18 26h-4c0.79653-14.603 10.698-22.927 22-31-7.425-6.93-7.425-6.93-15-14 5.7183-5.7183 9.6916-9.1869 18-8 5.1868 3.5793 7.6574 7.2973 10.312 12.938 0.34611 0.69029 0.69223 1.3806 1.0488 2.0918 1.9364 3.9823 3.1577 7.5163 3.6387 11.971 0.81404-0.72316 0.81404-0.72316 1.6445-1.4609 0.71543-0.63164 1.4309-1.2633 2.168-1.9141 0.7077-0.62648 1.4154-1.253 2.1445-1.8984 3.8704-3.271 5.9794-4.3223 11.043-3.7266 9.5494 4.5671 16.031 16.056 21 25v2h2c0.30937-1.0209 0.30937-1.0209 0.625-2.0625 2.0676-4.4172 4.3822-9.1478 9.418-10.477 7.5349 0.13336 11.995 5.4618 16.957 10.539 0.67547 0.65227 1.3509 1.3045 2.0469 1.9766 2.6282 2.5496 4.9966 5.0786 7.2656 7.9609 1.4544 2.3205 1.4544 2.3205 3.6875 2.0625 0.34611-1.0132 0.34611-1.0132 0.69922-2.0469 3.5393-9.6806 3.5393-9.6806 8.3008-11.953 10.765-0.56657 20.113 7.7575 27.941 14.301 2.1519 1.835 2.1519 1.835 5.0586 3.6992 0.15855-0.80824 0.31711-1.6165 0.48047-2.4492 2.5276-11.577 2.5276-11.577 7.5195-14.551 8.9395-2.2349 17.916 2.6582 26 6 1.9995 0.79305 3.9994 1.585 6 2.375 1.3341 0.53978 2.6678 1.0806 4 1.625-0.33-0.99-0.66-1.98-1-3-0.61963-5.2226-0.93133-8.7991 2.375-13.062 10.565-7.7977 32.6-2.3225 44.625 0.0625 0.66 0.33 1.32 0.66 2 1-0.43313-1.0596-0.86625-2.1192-1.3125-3.2109-0.56268-1.3879-1.1252-2.776-1.6875-4.1641-0.28617-0.69867-0.57234-1.3973-0.86719-2.1172-2.1328-5.2812-2.1328-5.2812-2.1328-7.5078-1.1021 0.034805-2.2043 0.069609-3.3398 0.10547-31.135 0.68536-61.322-10.198-78.7-37.754-7.2342-12.018-11.339-24.467-13.46-38.289-3.1914-20.664-10.226-39.788-25.25-54.812-2.25-2.25-2.25-2.25-4.25-5.25z" fill="#c9ced3"/><path transform="translate(589.44 106.19)" d="m0 0c9.2538 8.7351 13.539 22.076 17.562 33.812 2.7615 0 3.1176-1.0379 4.9375-3.0625 7.6896-7.9314 16.897-13.646 28.062-12.938 6.5445 1.8179 8.7028 9.2626 10.25 15.188 2.3205 9.229 2.1198 18.362 1.75 27.812 0.94102-0.5543 1.882-1.1086 2.8516-1.6797 1.2576-0.73206 2.5155-1.4638 3.7734-2.1953 0.61746-0.3648 1.2349-0.72961 1.8711-1.1055 5.5143-3.1925 10.597-5.3006 17.066-5.457 1.3632-0.059941 1.3632-0.059941 2.7539-0.12109 3.9164 0.8152 5.3193 2.374 7.6836 5.5586 0.49344 2.8319 0.67041 4.9389 0.5625 7.75-0.017322 0.74371-0.034644 1.4874-0.05249 2.2537-0.62574 15.134-5.8022 28.581-12.51 41.996-2.4131-0.23678-4.8242-0.48017-7.2344-0.74609-2.6581-0.29244-2.6581-0.29244-4.9062-0.22656-6.2397-0.083355-10.66-3.0683-15.777-6.3013-7.3664-4.6302-15.093-8.3028-23.083-11.726-0.89074-0.38414-1.7815-0.76828-2.6992-1.1641-12.515-4.5471-26.139-2.1531-38.301 2.1641-10.631-10.458-10.631-10.458-14.375-14.875-3.297-3.8252-6.7411-7.4948-10.25-11.125-0.55091-0.58894-1.1018-1.1779-1.6694-1.7847-4.0412-4.1332-4.0412-4.1332-9.7056-4.2153 0.3192-21.822 7.9214-47.997 28.121-59.828 5.0245-2.0452 9.0323-1.139 13.316 2.0156z" fill="#1b99da"/><path transform="translate(410,450)" d="m0 0c1.0522 1.708 1.0522 1.708 2.0234 3.9531 0.37423 0.83628 0.74846 1.6726 1.134 2.5342 0.40178 0.91169 0.80357 1.8234 1.2175 2.7627 8.3125 18.085 19.099 34.324 31.625 49.75 0.49274 0.60844 0.98549 1.2169 1.4932 1.8438 5.2407 6.4284 10.701 12.519 16.655 18.305 1.8516 1.8516 1.8516 1.8516 3.9141 4.4766 2.2896 2.8067 4.8525 5.0111 7.6055 7.3555 2.6301 2.2777 5.162 4.6473 7.707 7.0195 4.9113 4.4923 10.062 8.3557 15.625 12-4.4899 13.092-18.898 25.884-32.199 29.617-6.2307 0.61206-10.081-3.1634-13.801-7.6172-7.6524-11.697-9.2221-25.356-9-39-1.0158 0.47051-2.0316 0.94102-3.0781 1.4258-28.124 12.816-28.124 12.816-40.422 6.8867-9.812-9.0761-8.8831-21.037-6.1648-33.316 1.1732-4.8829 2.3167-9.5215 4.6648-13.997-1.2465 0.32098-2.493 0.64195-3.7773 0.97266-5.6046 1.238-11.062 1.4312-16.785 1.4648-0.98936 0.032871-1.9787 0.065742-2.998 0.099609-7.0425 0.051405-13.626-1.0847-17.653-7.4573-0.78687-2.0798-0.78687-2.0798-0.78687-6.0798 1.8086-1.7969 1.8086-1.7969 4.4375-3.75 5.2737-4.1184 10.153-8.5133 15-13.125 0.7309-0.69319 1.4618-1.3864 2.2148-2.1006 1.4446-1.3705 2.8886-2.7416 4.332-4.1133 22.565-21.395 22.565-21.395 27.016-19.911z" fill="#0d509b"/><path transform="translate(630,511)" d="m0 0 6 3c0.33-0.99 0.66-1.98 1-3v2c0.99 0.30938 0.99 0.30938 2 0.625 4.1161 1.8865 7.4588 4.5807 11 7.375 1.1041-0.72316 1.1041-0.72316 2.2305-1.4609 0.97582-0.63164 1.9516-1.2633 2.957-1.9141 0.96293-0.62648 1.9259-1.253 2.918-1.8984 6.8418-4.0811 14.576-5.7581 22.277-2.8164 8.8969 5.2603 12.092 11.448 12.035 21.613-0.84927 7.0641-4.5998 12.505-10.418 16.477 0.23461 0.89074 0.46922 1.7815 0.71094 2.6992 0.5163 5.8956-3.9262 9.1657-7.7109 13.301-0.68707 0.77988-1.3741 1.5598-2.082 2.3633-10.888 11.697-25.674 19.738-41.918 18.637v-4c1.98-0.33 3.96-0.66 6-1-0.58638-4.0653-1.1972-8.1265-1.8125-12.188-0.16564-1.1505-0.33129-2.301-0.50195-3.4863-0.1708-1.1118-0.3416-2.2236-0.51758-3.3691-0.2278-1.5318-0.2278-1.5318-0.46021-3.0945-0.761-3.0779-2.0551-5.1813-3.7078-7.8625v-3h-4c0.49113 0.81211 0.49113 0.81211 0.99219 1.6406 1.2245 2.8666 1.2067 5.0047 1.1328 8.1094-0.018047 0.98484-0.036094 1.9697-0.054688 2.9844-0.023203 0.74766-0.046406 1.4953-0.070312 2.2656-3.701-1.2337-5.2681-3.2681-8-6-5.1377-1.7126-9.9478-2.0075-14.449 1.4141-5.5168 5.6419-9.053 11.728-9.3086 19.637-0.38244 3.078-2.1122 4.8193-4.2422 6.9492 0.99 0.33 1.98 0.66 3 1-8.6355 0.5757-8.6355 0.5757-12-4-0.33-0.66-0.66-1.32-1-2-4.8176 0.59523-8.4587 2.6727-12.625 5-7.7811 4.2961-15.114 7.5808-23.688 3.375-7.1332-6.3038-9.7645-11.787-8.6875-21.375 2.5689-5.1379 6.9958-10.461 13.031-11.273 6.3448-0.26102 10.197 1.1262 15.727 4.1406 5.6834 2.8714 9.2635 0.89531 14.191-2.2622 3.4755-2.72 5.6269-6.1728 7.9883-9.855 7.8445-11.63 13.887-20.254 28.938-19.875 1.0325 0.013535 1.0325 0.013535 2.0859 0.027344 1.6798 0.023331 3.3595 0.059193 5.0391 0.097656-0.069609-0.78504-0.13922-1.5701-0.21094-2.3789-0.39103-7.5879 0.30998-11.633 6.2109-16.621z" fill="#c9ced3"/><path transform="translate(337.95 796.04)" d="m0 0c3.5316 3.0977 5.3849 6.6997 7.3633 10.902 0.34611 0.69029 0.69223 1.3806 1.0488 2.0918 1.9364 3.9823 3.1577 7.5163 3.6387 11.971 0.81404-0.72316 0.81404-0.72316 1.6445-1.4609 0.71543-0.63164 1.4309-1.2633 2.168-1.9141 0.7077-0.62648 1.4154-1.253 2.1445-1.8984 3.8704-3.271 5.9794-4.3223 11.043-3.7266 9.5494 4.5671 16.031 16.056 21 25v2h2c0.20625-0.68062 0.4125-1.3613 0.625-2.0625 2.0676-4.4172 4.3822-9.1478 9.418-10.477 7.5349 0.13336 11.995 5.4618 16.957 10.539 0.67547 0.65227 1.3509 1.3045 2.0469 1.9766 2.6282 2.5496 4.9966 5.0786 7.2656 7.9609 1.4544 2.3205 1.4544 2.3205 3.6875 2.0625 0.23074-0.67547 0.46148-1.3509 0.69922-2.0469 3.5393-9.6806 3.5393-9.6806 8.3008-11.953 10.765-0.56657 20.113 7.7575 27.941 14.301 2.1519 1.835 2.1519 1.835 5.0586 3.6992 0.15855-0.80824 0.31711-1.6165 0.48047-2.4492 2.5276-11.577 2.5276-11.577 7.5195-14.551 8.9395-2.2349 17.916 2.6582 26 6 1.9995 0.79305 3.9994 1.585 6 2.375 1.3341 0.53978 2.6678 1.0806 4 1.625-0.33-0.99-0.66-1.98-1-3-0.61963-5.2226-0.93133-8.7991 2.375-13.062 10.565-7.7977 32.6-2.3225 44.625 0.0625 0.66 0.33 1.32 0.66 2 1-0.36094-0.80824-0.72187-1.6165-1.0938-2.4492-0.46406-1.0686-0.92813-2.1373-1.4062-3.2383-0.46406-1.0557-0.92813-2.1115-1.4062-3.1992-1.0433-2.9696-1.3244-5.0052-1.0938-8.1133 1.2697-0.29133 2.5395-0.58266 3.8477-0.88281 9.7223-2.2943 18.914-4.9068 28.086-8.8828 2.7236-1.0964 5.1762-1.7806 8.0664-2.2344 0 8.0343-14.893 16.371-21 21-0.57702 0.44312-1.154 0.88623-1.7485 1.3428-8.3034 6.3456-16.826 11.32-26.293 15.732-1.8616 0.87904-3.6979 1.7961-5.5327 2.7295-10.741 5.3172-21.945 8.8228-33.426 12.195-1.6513 0.495-1.6513 0.495-3.3359 1-2.8754 0.79094-5.738 1.4228-8.6641 2-0.63905 0.1339-1.2781 0.2678-1.9365 0.40576-27.134 5.4799-56.327 4.2453-83.063-2.4058-0.93683-0.22462-1.8737-0.44924-2.8389-0.68066-24.52-5.9885-53.057-17.082-72.165-34.104-2.7766-1.6898-3.9736-1.2854-6.9961-0.21484-10.177 6.3224-16.13 14.217-18 26h-4c0.79653-14.603 10.698-22.927 22-31-4.95-4.62-9.9-9.24-15-14 6.0387-6.0387 12.694-11.662 20.949-5.9648z" fill="#0d509b"/><path transform="translate(391.94 283.94)" d="m0 0c0.97002 0.0045117 1.94 0.0090234 2.9395 0.013672 2.3744 0.011697 4.7487 0.028087 7.123 0.048828-0.18756 0.62326-0.37512 1.2465-0.56836 1.8887-0.8124 2.7032-1.6223 5.4072-2.4316 8.1113-0.33064 1.1002-0.33064 1.1002-0.66797 2.2227-5.7936 19.447-7.9635 38.557-9.332 58.777-0.95133 0.29391-1.9027 0.58781-2.8828 0.89062-13.487 4.2818-26.554 9.5754-39.654 14.899-3.9135 1.589-7.836 3.1527-11.768 4.6951-1.3963 0.54938-1.3963 0.54938-2.8208 1.1099-1.7027 0.66871-3.4067 1.334-5.1123 1.9951-4.2324 1.6365-4.2324 1.6365-7.7622 4.4106-1.4525-13.073 8.9139-22.537 18.691-29.785 3.398-2.4619 6.8411-4.8522 10.309-7.2148-1.2336-0.61875-1.2336-0.61875-2.4922-1.25-23.381-12.095-23.381-12.095-26.508-23.75 0.53047-12.466 12.82-19.657 22.688-24.938 0.72469-0.3897 1.4494-0.7794 2.196-1.1809 4.0882-2.1062 7.5276-3.2119 12.116-3.8816 0.33-0.66 0.66-1.32 1-2 2.7124-0.78643 5.3719-1.4571 8.125-2.0625 0.74766-0.17338 1.4953-0.34676 2.2656-0.52539 8.2588-1.8777 16.089-2.5498 24.547-2.4746z" fill="#0d509b"/><path transform="translate(491.6 129.29)" d="m0 0c2.0093 1.4278 3.8675 2.8929 5.7148 4.5195 2.5234 2.3355 2.5234 2.3355 5.5625 3.0625 4.6494 1.6738 7.6332 4.6992 11.125 8.125 0.65098 0.63809 1.302 1.2762 1.9727 1.9336 7.4379 7.8223 19.027 22.745 19.027 34.066l4 1c-0.6799 0.10546-1.3598 0.21092-2.0603 0.31958-3.127 0.48969-6.2521 0.99122-9.3772 1.4929-1.0693 0.16564-2.1386 0.33129-3.2402 0.50195-5.6686 0.91877-11 2.0573-16.406 4.0002-2.5164 0.90016-5.0863 1.5519-7.6658 2.2478-10.576 3.1942-20.396 8.5104-30.25 13.438-0.91176-1.6131-1.8234-3.2263-2.7344-4.8398-0.85011-1.451-1.7366-2.8812-2.6562-4.2891-6.4178-9.9813-10.257-21.326-12.969-32.832-0.53003-2.2369-0.53003-2.2369-2.6406-4.0391h2c-0.020947-0.70496-0.041895-1.4099-0.063477-2.1362-0.084011-3.2461-0.13545-6.492-0.18652-9.7388-0.033516-1.1086-0.067031-2.2172-0.10156-3.3594-0.099654-8.4706 1.0782-15.6 6.4141-22.391 12.012-5.6226 24.616 2.3861 34.535 8.918z" fill="#0d509b"/><path transform="translate(715,610)" d="m0 0c9.8852 2.0277 17.345 11.14 20.853 20.204 2.0494 6.3779 2.5766 12.122 2.4597 18.796 0.0032227 0.92039 0.0064453 1.8408 0.0097656 2.7891-0.042822 5.5279-0.67589 10.624-1.8616 16.019-1.5361 7.3103-1.5075 15.258 3.5393 21.192 2.3378 1.4818 4.3193 2.1752 7 3 0.165-1.155 0.33-2.31 0.5-3.5 1.0828-4.9353 3.1199-9.202 5.375-13.688 0.33967-0.67676 0.67934-1.3535 1.0293-2.0508 8.1215-15.779 8.1215-15.779 17.471-16.262 8.3965 0.46569 13.184 4.1002 17.504 11.172 1.5423 3.2029 1.9706 5.7913 2.1211 9.3281h-2c0.495 0.76312 0.99 1.5262 1.5 2.3125 2.3083 5.6746 2.4454 11.851 0.5 17.688h-2c-0.33-3.63-0.66-7.26-1-11-10.108-0.82077-15.353-0.4009-21.387 7.9102-5.3673 8.6231-7.9061 19.124-8.3398 29.199-0.27344 1.8906-0.27344 1.8906-2.2734 3.8906-1.0291 7.0565 1.9814 13.981 7 19-7.6576-0.31256-12.132-3.5864-15.812-10.312-1.1507-3.5731-2.0358-7.0898-2.7578-10.77-0.36466-1.9886-0.36466-1.9886-1.4297-3.918 0.069609-0.62133 0.13922-1.2427 0.21094-1.8828 0.25029-3.4207 0.19702-6.0582-2.7313-8.2607-1.9893-1.1363-4.0036-2.1631-6.0656-3.1612-0.70923-0.35957-1.4185-0.71914-2.1492-1.0896-1.7476-0.88334-3.5053-1.7465-5.2649-2.6057-0.014583-0.8938-0.029165-1.7876-0.044189-2.7085-0.34906-19.273-1.2699-38.174-3.9558-57.292-0.58008 0.27715-1.1602 0.5543-1.7578 0.83984-13.21 6.1253-28.768 6.4764-41.242-1.8398v-3c3.4172 0.62741 6.6308 1.5078 9.9375 2.5625 9.5929 2.6116 21.517 3.4695 30.062-2.5625 1.3519-3.4326 0.75438-5.8281-0.21484-9.3164-0.27393-1.0113-0.54785-2.0225-0.83008-3.0645-0.29455-1.0499-0.5891-2.0999-0.89258-3.1816-0.57479-2.0838-1.1465-4.1684-1.7148-6.2539-0.25773-0.9224-0.51546-1.8448-0.78101-2.7952-0.56665-2.3884-0.56665-2.3884-0.56665-5.3884z" fill="#c9ced3"/><path transform="translate(534.28 106.93)" d="m0 0c6.5658 4.9904 21.211 16.165 20.48 24.922-0.7539 3.1123-1.704 6.0606-2.7617 9.082-2.3517 7.3789-2.787 14.363-3 22.062 0.73428 0.083064 1.4686 0.16613 2.2251 0.25171 3.3893 0.91396 4.7277 2.2262 7.1733 4.7209 0.80953 0.81791 1.6191 1.6358 2.4531 2.4785 0.83273 0.86174 1.6655 1.7235 2.5234 2.6113 0.825 0.83467 1.65 1.6693 2.5 2.5293 6.394 6.5107 12.505 13.214 18.125 20.408-1.2138 1.0391-2.4468 2.0557-3.6875 3.0625-0.68449 0.56848-1.369 1.137-2.0742 1.7227-4.1766 2.2669-7.8634 0.056718-11.926-1.7227-3.6152-1.5208-6.8713-2.3875-10.75-2.9375-4.2917-0.7803-4.2917-0.7803-6.625-3.75-1.0675-3.8429-1.595-7.4025-1.9375-11.375h-12c-0.4125-1.0158-0.825-2.0316-1.25-3.0781-6.2953-15.152-14.684-30.749-29.316-39.277-3.7805-4.3368-0.928-11.134 0.69141-15.957 5.2834-15.384 12.836-26.206 29.156-15.754z" fill="#0d509b"/><path transform="translate(454,309)" d="m0 0c0.62004 0.37512 1.2401 0.75023 1.8789 1.1367 9.3682 5.4136 19.357 9.3303 30.121 10.863-0.18176 0.62004-0.36352 1.2401-0.55078 1.8789-3.8419 13.535-5.9215 25.84-5.6992 39.934 0.0065049 1.3405 0.011715 2.681 0.015625 4.0215 0.056448 7.109 0.33858 14.111 1.2344 21.166-9.8275 5.2681-25.03 4.7831-35 0-1.2066-0.55687-1.2066-0.55687-2.4375-1.125-4.8877-5.8652-3.912-15.887-3.875-23.062 0.0041895-1.1077 0.0083789-2.2154 0.012695-3.3567 0.11349-8.2361 0.99149-15.526 3.2998-23.456 0.27844-1.1408 0.55687-2.2816 0.84375-3.457 2.2652-8.8559 5.833-16.552 10.156-24.543z" fill="#c9ced3"/><path transform="translate(278,618)" d="m0 0h1c0.9422 5.5271 1.1212 10.838 1.0625 16.438-0.0045117 0.82693-0.0090234 1.6539-0.013672 2.5059-0.01167 2.0189-0.029601 4.0378-0.048828 6.0566 1.1834-0.33773 2.3667-0.67547 3.5859-1.0234 8.097-2.2918 16.119-4.5049 24.414-5.9766-0.46148 0.86238-0.92297 1.7248-1.3984 2.6133-2.2058 4.1261-4.4048 8.2558-6.6016 12.387-0.4436 0.83386-0.8872 1.6677-1.3442 2.5269-1.3671 2.573-2.7306 5.1478-4.0933 7.7231-0.43683 0.82154-0.87366 1.6431-1.3237 2.4895-0.4075 0.77175-0.81501 1.5435-1.2349 2.3386-0.36279 0.68481-0.72558 1.3696-1.0994 2.0752-1.028 1.9949-1.028 1.9949-1.9045 4.8467 0.54785 0.097969 1.0957 0.19594 1.6602 0.29688 7.8945 1.489 15.599 3.5769 23.34 5.7031-4.1521 9.4684-13.876 16.987-21.125 24.125-5.2677 5.1883-10.412 10.386-15.227 16-2.7227 3.0977-5.6491 5.9825-8.5859 8.8755-0.58846 0.58395-1.1769 1.1679-1.7832 1.7695-1.4241 1.4125-2.8513 2.8218-4.2793 4.2305-1.2669-3.8008-0.54456-4.8559 0.875-8.5625 3.1799-8.5246 6.1352-17.12 9.0894-25.725 0.37786-1.0963 0.75571-2.1925 1.145-3.322 0.33999-0.98968 0.67998-1.9794 1.0303-2.999 0.86035-2.3916 0.86035-2.3916 1.8604-4.3916-1.155-0.061875-2.31-0.12375-3.5-0.1875-7.4166-0.78571-14.458-3.4708-21.5-5.8125 1.8897-5.8627 3.9623-11.604 6.293-17.305 0.3075-0.75825 0.615-1.5165 0.93182-2.2977 0.98466-2.4254 1.9735-4.8491 2.9627-7.2726 0.67727-1.6649 1.3544-3.3299 2.0315-4.9949 4.5105-11.079 9.0727-22.134 13.781-33.13z" fill="#1b99da"/><path transform="translate(234,635)" d="m0 0c-0.57822 4.9006-2.7975 8.4805-5.1875 12.688-3.2773 5.9925-6.0271 11.955-8.1875 18.438-0.22583 0.66604-0.45166 1.3321-0.68433 2.0183-4.3003 13.542-5.5234 26.636-5.4407 40.732 0.0027594 0.85494 0.0055188 1.7099 0.0083618 2.5907 0.16044 27.023 5.5543 62.44 22.492 84.534 2.2871 0.94087 2.2871 0.94087 5 1 1.1163 0.078633 2.2327 0.15727 3.3828 0.23828 10.989 0.21795 20.215-0.94059 28.18-9.1641 1.4375-1.0742 1.4375-1.0742 4.4375-0.074219-1.483 3.7614-3.5043 5.3733-6.8125 7.625-0.85207 0.59039-1.7041 1.1808-2.582 1.7891-8.8576 5.3916-19.64 5.8566-29.605 3.5859 11.439 20.132 23.599 39.493 39.543 56.395 2.0925 2.2189 4.1012 4.4752 6.082 6.793 6.295 7.2198 13.105 13.601 20.586 19.578 1.7758 1.4226 3.5334 2.8684 5.2656 4.3438 5.8844 4.9917 12.041 9.5571 18.336 14.016 0.81275 0.59329 1.6255 1.1866 2.4629 1.7979 5.8558 4.139 5.8558 4.139 12.725 3.0771 7.364-3.6063 11.003-10.164 15-17 1.219-1.9854 2.448-3.9648 3.6875-5.9375 0.54012-0.87527 1.0802-1.7505 1.6367-2.6523 1.6899-2.4304 3.5218-4.3876 5.6758-6.4102 0.99 0.33 1.98 0.66 3 1-1.4594 3.1335-3.2262 5.8264-5.25 8.625-2.4195 3.3973-4.6242 6.814-6.6875 10.438-4.1152 6.976-8.9127 12.985-16.062 16.938 25.205 14.119 51.727 24.011 80.133 29.238 3.8672 0.76172 3.8672 0.76172 5.8672 1.7617-0.16113-0.66-0.32227-1.32-0.48828-2-2.5124-14.729-0.15824-30.322 5.4883-44h4c-0.29004 0.81791-0.29004 0.81791-0.58594 1.6523-0.26039 0.7541-0.52078 1.5082-0.78906 2.2852-0.25523 0.7309-0.51047 1.4618-0.77344 2.2148-2.4456 8.1783-3.1386 15.616-3.0391 24.16 6.4453e-4 1.0706 0.0012891 2.1411 0.0019531 3.2441-0.0059123 6.296-0.0059123 6.296 1.1855 12.443 33.396 5.975 69.413 1.8658 101.82-7.4727 2.7654-0.66904 5.3495-0.75682 8.1797-0.52734-1.3588 5.4353-3.8054 4.8508-8.6875 6.25-10.327 2.9012-20.731 5.0166-31.312 6.75-1.0724 0.18007-1.0724 0.18007-2.1665 0.36377-49.204 7.9004-102.54-2.6381-146.83-24.364-0.66258-0.32436-1.3252-0.64872-2.0078-0.98291-16.002-7.9477-31.173-17.702-44.992-29.017-0.52755-0.43135-1.0551-0.86271-1.5986-1.3071-18.072-14.846-34.375-30.935-48.401-49.693-0.41846-0.55623-0.83692-1.1125-1.2681-1.6855-15.365-20.55-27.771-42.975-36.825-66.97-0.61118-1.5809-1.2481-3.152-1.9087-4.7129-2.7863-6.6116-4.5698-13.275-6.1853-20.257-0.38962-1.6204-0.38962-1.6204-0.78711-3.2734-2.0459-8.67-3.1789-16.959-3.2285-25.852-0.0085501-1.2246-0.0085501-1.2246-0.017273-2.4739-0.0093921-1.7211-0.015961-3.4422-0.019836-5.1633-0.0096367-2.5783-0.040687-5.1558-0.072266-7.7339-0.092092-14.171 1.563-27.403 6.4375-40.816 0.2935-0.82484 0.58701-1.6497 0.8894-2.4995 9.8143-26.563 9.8143-26.563 16.986-26.563z" fill="#0d509b"/><path transform="translate(435,153)" d="m0 0c0.68949 0.19868 1.379 0.39735 2.0894 0.60205 2.1942 0.6537 4.3642 1.3601 6.5356 2.0854 0.68731 0.20706 1.3746 0.41411 2.0828 0.62744 5.8205 2.0731 6.8933 5.1192 8.2922 10.685 0.43893 1.5159 0.43893 1.5159 0.88672 3.0625 0.39639 1.4541 0.39639 1.4541 0.80078 2.9375 1.6462 5.4407 3.7838 10.427 6.3125 15.5 0.49826 1.0055 0.49826 1.0055 1.0066 2.0312 1.5742 3.0702 3.0516 5.5372 5.3059 8.1875 1.6875 2.2812 1.6875 2.2812 1.7656 4.3516-1.5787 2.8256-3.6223 4.0611-6.3281 5.8047-0.95391 0.6368-1.9078 1.2736-2.8906 1.9297-5.2437 2.192-8.8342-1.3257-13.297-4.1172-7.8441-4.6164-16.03-7.6917-24.902-9.707-0.72413-0.16605-1.4483-0.33209-2.1943-0.50317-1.4037-0.31114-2.8121-0.60238-4.2246-0.87061-7.5535-1.6318-8.7503-7.1726-10.929-13.919-2.6046-8.2443-5.393-19.801-0.52734-27.52 8.0583-7.8878 20.524-3.9869 30.215-1.168z" fill="#0d509b"/><path transform="translate(611.44 532.06)" d="m0 0c3.0519 3.4985 3.5625 5.3321 3.5625 9.9375-1.4375 2.9375-1.4375 2.9375-3 5 1.1389-0.034805 1.1389-0.034805 2.3008-0.070312 0.99387-0.018047 1.9877-0.036094 3.0117-0.054688 0.98613-0.023203 1.9723-0.046406 2.9883-0.070312 3.5996 0.26046 5.2026 1.2431 6.8789 4.457 0.89875 3.0001 1.0206 5.427 0.94531 8.5508-0.018047 0.97582-0.036094 1.9516-0.054688 2.957-0.023203 0.73605-0.046406 1.4721-0.070312 2.2305-3.701-1.2337-5.2681-3.2681-8-6-5.1377-1.7126-9.9478-2.0075-14.449 1.4141-5.5168 5.6419-9.053 11.728-9.3086 19.637-0.38244 3.078-2.1122 4.8193-4.2422 6.9492 0.99 0.33 1.98 0.66 3 1-8.6355 0.5757-8.6355 0.5757-12-4-0.33-0.66-0.66-1.32-1-2-4.8176 0.59523-8.4587 2.6727-12.625 5-7.7811 4.2961-15.114 7.5808-23.688 3.375-7.1332-6.3038-9.7645-11.787-8.6875-21.375 2.5689-5.1379 6.9958-10.461 13.031-11.273 6.3448-0.26102 10.197 1.1262 15.727 4.1406 5.6834 2.8714 9.2635 0.89531 14.191-2.2622 3.4755-2.72 5.6269-6.1728 7.9883-9.855 16.134-23.92 16.134-23.92 23.5-17.688z" fill="#c9ced3"/><path transform="translate(481,254)" d="m0 0h3c0.063164 0.59426 0.12633 1.1885 0.19141 1.8008 1.9886 13.46 9.8122 20.953 20.809 28.199 1.0306 0.73283 1.0306 0.73283 2.082 1.4805 4.3064 2.8482 6.9937 2.3557 11.918 1.5195 2.207 1.4648 2.207 1.4648 4 3-0.59426 0.25652-1.1885 0.51305-1.8008 0.77734-23.191 10.712-32.999 32.142-37.199 56.223-1.0686 16.732-1.0036 33.174 5 49 0.26764 0.70786 0.53528 1.4157 0.81104 2.145 15.263 39.189 44.555 59.963 81.873 76.105 20.081 8.7014 39.397 18.599 57.629 30.75 1.0235 0.66697 1.0235 0.66697 2.0676 1.3474 4.6199 3.1764 4.6199 3.1764 4.6199 7.6526-2.9305-0.60078-5.0077-1.4744-7.4766-3.1523-0.66193-0.44199-1.3239-0.88397-2.0059-1.3394-0.70705-0.47711-1.4141-0.95423-2.1426-1.4458-8.1776-5.4108-16.599-10.225-25.219-14.89-3.7336-2.0308-7.4442-4.103-11.156-6.1729-0.1057 0.85336-0.21141 1.7067-0.32031 2.5859-3.4287 17.223-17.351 31.446-33.492 37.289-3.1355 0.95067-5.8871 1.4444-9.1875 1.125 0.43699-3.7566 0.43699-3.7566 2.9336-4.8359 0.82629-0.17789 1.6526-0.35578 2.5039-0.53906 5.8978-1.5463 10.522-4.2558 15.562-7.625 1.3303-0.86625 1.3303-0.86625 2.6875-1.75 6.7338-6.5518 12.12-15.245 14.364-24.386 0.313-1.275 0.626-2.5501 0.94849-3.8638-1.0487-0.46374-2.0973-0.92748-3.1777-1.4053-3.9221-1.7351-7.843-3.4726-11.764-5.2109-1.6911-0.74938-3.3825-1.4981-5.0742-2.2461-2.4435-1.0806-4.8859-2.1636-7.3281-3.2471-0.74617-0.32934-1.4923-0.65867-2.2611-0.99799-4.8712-2.1648-9.6423-4.4787-14.395-6.8926-0.54527 0.961-0.54527 0.961-1.1016 1.9414-8.7038 14.975-21.474 25.574-38.898 29.059-2.9375-0.375-2.9375-0.375-5-1 1.4448-4.3345 4.3177-4.1869 8.375-5.25 15.306-4.4062 25.034-12.931 32.625-26.75-2.4338-1.9513-4.8703-3.8982-7.3242-5.8242-21.485-16.939-38.989-38.109-45.676-65.176-0.52465 0.21656-1.0493 0.43313-1.5898 0.65625-15.361 5.5209-32.929 3.3463-45.801-6.7773-1.9357-2.2599-2.2687-3.9585-2.6094-6.8789 3.6981 0 4.016 1.0079 6.4141 3.5586 11.063 10.055 27.004 8.8406 40.586 5.4414-0.068562-0.54785-0.13712-1.0957-0.20776-1.6602-0.88222-7.7718-1.0749-15.523-1.1047-23.34-0.0044261-1.024-0.0044261-1.024-0.0089417-2.0686-0.014-14.268 2.1734-26.611 7.3214-39.931-1.2626 0.063809-1.2626 0.063809-2.5508 0.12891-14.855-0.55516-31.791-10.214-38.949-23.316-1.5253-3.0199-1.5821-4.6018-0.5-7.8125 3.899 1.2997 4.0076 2.5608 5.75 6.1875 6.9695 13.204 20.275 17.662 34.25 20.812h4c0.25652-0.53367 0.51305-1.0673 0.77734-1.6172 3.4637-6.7407 7.9958-11.938 13.223-17.383 0.80244-0.86238 0.80244-0.86238 1.6211-1.7422 3.1014-3.2578 3.1014-3.2578 5.3789-3.2578-2.8539-3.0678-5.715-5.1805-9.3125-7.3125-11.976-7.5268-18.924-17.27-18.688-31.688z" fill="#0d509b"/><path transform="translate(447,512)" d="m0 0c3.9783 2.8933 6.9987 6.1994 10.168 9.9141 2.3097 2.6299 4.7867 5.0552 7.2852 7.5039 1.5469 1.582 1.5469 1.582 3.4844 4.082 2.3462 2.8439 4.9288 5.0947 7.7305 7.4805 2.6301 2.2777 5.162 4.6473 7.707 7.0195 4.9113 4.4923 10.062 8.3557 15.625 12-4.4899 13.092-18.898 25.884-32.199 29.617-6.2307 0.61206-10.081-3.1634-13.801-7.6172-8.401-12.841-9.1918-27.809-9.25-42.688-0.020625-1.2987-0.04125-2.5975-0.0625-3.9355-0.033101-8.2381 0.86901-15.502 3.3125-23.377z" fill="#0d509b"/><path transform="translate(444,391)" d="m0 0c0.66902 0.21656 1.338 0.43313 2.0273 0.65625 6.262 1.8156 12.111 2.6447 18.598 2.6562 0.67926 0.0051563 1.3585 0.010312 2.0583 0.015625 5.5901-0.07481 10.874-1.1018 16.317-2.3281 0.24122 0.57855 0.48243 1.1571 0.73096 1.7532 9.5916 22.921 20.8 45.237 41.687 59.942 1.582 1.3047 1.582 1.3047 1.582 3.3047-8.5957 4.2979-22.939 1.037-31-3-0.89848-0.4241-1.797-0.8482-2.7227-1.2852-7.2164-3.6437-13.258-8.3515-19.277-13.715-1.1408-1.0151-1.1408-1.0151-2.3047-2.0508-13.059-12.338-23.452-28.41-27.695-45.949z" fill="#c9ced3"/><path transform="translate(536,874)" d="m0 0h1c0.0038672 1.2375 0.0038672 1.2375 0.0078125 2.5 0.70568 21.076 11.414 38.868 25.992 53.5-2.6022 5.2043-11.758 5.9896-17 7v-2c-1.0068 0.24234-2.0135 0.48469-3.0508 0.73438-7.9846 1.9085-15.982 3.7429-24.012 5.4531-0.77191 0.16661-1.5438 0.33322-2.3391 0.50488-6.4882 1.3662-12.942 2.4741-19.598 2.3701-0.76312-0.0090234-1.5263-0.018047-2.3125-0.027344-0.55687-0.011602-1.1137-0.023203-1.6875-0.035156-1.8199-19.564 13.507-38.701 28-50 11.527-8 11.527-8 15-8v-12z" fill="#c9ced3"/><path transform="translate(589.44 106.19)" d="m0 0c8.6301 8.0664 18.345 25.74 16.562 37.812-1.4409 2.5302-3.1075 4.5512-5.0273 6.7383-6.6967 7.6781-9.8696 16.733-12.973 26.262-6.0489-1.221-13.564-4.4683-15.875-10.562-0.40928-1.4701-0.78027-2.951-1.125-4.4375-2.6904-10.052-6.4122-22.412-14-30-0.24273-11.408 10.164-22.07 19.062-28.062 5.1253-1.6357 9.0795-0.91307 13.375 2.25z" fill="#0d509b"/><path transform="translate(342.45 255.87)" d="m0 0c0.75389-0.0016818 1.5078-0.0033636 2.2845-0.0050964 7.5306-0.0085744 15.061 0.046666 22.591 0.10959 4.0055 0.030626 8.0091 0.0065489 12.015-0.026367 11.612 0.028432 20.9 0.66573 29.664 9.0547 1.1264 3.3793 0.96345 3.7293-0.43359 6.793-0.31904 0.71221-0.63809 1.4244-0.9668 2.1582-0.34225 0.73799-0.68449 1.476-1.0371 2.2363-0.33838 0.74959-0.67676 1.4992-1.0254 2.2715-0.83705 1.8509-1.686 3.6965-2.5371 5.541-0.58266 0.014583-1.1653 0.029165-1.7656 0.044189-13.975 0.38866-27.439 1.1553-40.859 5.3933-8.0307 1.3385-16.385-9.7499-21.375-15.438-4.2249-5.5315-6.9193-9.952-6-17 3.0184-1.5092 6.1353-1.1417 9.4453-1.1328z" fill="#0d509b"/><path transform="translate(644,126)" d="m0 0c7.0515 8.3336 7.6036 19.647 7.75 30.125 0.061875 1.115 0.12375 2.2301 0.1875 3.3789 0.11268 7.9718-1.6908 11.323-7.6836 16.512-3.0361 2.6724-4.6359 5.3522-6.6289 8.8589-3.8368 6.6789-3.8368 6.6789-6.625 9.125-0.20754-0.92039-0.41508-1.8408-0.62891-2.7891-3.0988-12.732-7.9446-28.593-19.371-36.211-2.1252-5.1409-4.3696-11.212-1.793-16.457 2.1205-2.1896 4.2626-3.8421 6.793-5.543 0.92941-0.6484 1.8588-1.2968 2.8164-1.9648 6.9018-4.5918 17.175-11.328 25.184-5.0352z" fill="#0d509b"/><path transform="translate(410,450)" d="m0 0c1.7538 2.564 2.947 5.4347 4.25 8.25 0.37641 0.76441 0.75281 1.5288 1.1406 2.3164 2.8434 6.0527 3.2852 8.7979-0.42969 14.641-0.85775 1.2048-1.72 2.4065-2.5859 3.6055-4.2518 6.0672-7.4108 12.159-10.042 19.083-2.0745 5.2632-3.5423 6.4429-8.8726 7.7058-4.9481 0.56964-9.8584 0.7036-14.836 0.77344-1.0029 0.037383-2.0058 0.074766-3.0391 0.11328-7.1136 0.083799-13.725-0.95647-17.798-7.4087-0.7876-2.0796-0.7876-2.0796-0.7876-6.0796 1.8086-1.7969 1.8086-1.7969 4.4375-3.75 5.2737-4.1184 10.153-8.5133 15-13.125 0.7309-0.69319 1.4618-1.3864 2.2148-2.1006 1.4446-1.3705 2.8886-2.7416 4.332-4.1133 22.565-21.395 22.565-21.395 27.016-19.911z" fill="#0d509b"/><path transform="translate(389,355)" d="m0 0c0.495 11.88 0.495 11.88 1 24-2.3512 1.1137-4.7025 2.2275-7.125 3.375-5.8376 2.8583-11.282 6.0195-16.562 9.8125-0.56284 0.40332-1.1257 0.80663-1.7056 1.2222-2.6628 1.9672-4.9571 3.9619-7.2319 6.3755-4.0341 3.7621-7.3269 2.584-12.375 1.2148-22.114-7.5178-22.114-7.5178-25-17.438v-2.5625c5.6262-2.9069 11.281-5.4025 17.188-7.6797 1.2912-0.50287 1.2912-0.50287 2.6084-1.0159 2.7333-1.0634 5.4687-2.1214 8.2041-3.1794 1.8035-0.70149 3.6069-1.4033 5.4102-2.1055 4.3665-1.6983 8.7374-3.3847 13.111-5.0648 2.408-0.92738 4.8127-1.8631 7.2173-2.7994 1.4412-0.55481 2.8826-1.1092 4.3242-1.6631 0.97308-0.38235 0.97308-0.38235 1.9658-0.77243 3.2688-1.245 5.4007-1.7198 8.9717-1.7198z" fill="#0d509b"/><path transform="translate(600,803)" d="m0 0c-19.492 25.061-73.687 59.362-107 55-2.3086-2.1602-2.3086-2.1602-4.4375-5.0625-3.5763-4.6916-7.2726-8.8959-11.562-12.938 1-3 1-3 3-4 9.382-1.5905 17.55 2.507 26 6 1.9995 0.79305 3.9994 1.585 6 2.375 1.3341 0.53978 2.6678 1.0806 4 1.625-0.33-0.99-0.66-1.98-1-3-0.61963-5.2226-0.93133-8.7991 2.375-13.062 10.565-7.7977 32.6-2.3225 44.625 0.0625 0.66 0.33 1.32 0.66 2 1-0.36094-0.80824-0.72187-1.6165-1.0938-2.4492-0.69609-1.6029-0.69609-1.6029-1.4062-3.2383-0.46406-1.0557-0.92813-2.1115-1.4062-3.1992-1.0433-2.9696-1.3244-5.0052-1.0938-8.1133 1.2697-0.29133 2.5395-0.58266 3.8477-0.88281 9.3769-2.2121 28.693-12.655 37.152-10.117z" fill="#0d509b"/><path transform="translate(266,524)" d="m0 0c0.99847 3.1143 0.97109 5.0295 0.074219 8.1602-0.2189 0.78915-0.4378 1.5783-0.66333 2.3914-0.23872 0.82863-0.47744 1.6573-0.72339 2.511-1.924 6.95-3.5508 13.807-4.6875 20.938 4.29 0.66 8.58 1.32 13 2-1.9902 3.9804-4.0411 6.3993-7.0625 9.625-3.3528 3.4171-3.3528 3.4171-5.9375 7.375 0.59168 0.19336 1.1834 0.38672 1.793 0.58594 4.1217 1.3582 8.2021 2.7346 12.207 4.4141-3.5919 7.7996-10.547 13.607-16.58 19.559-3.4978 3.4664-6.7613 7.0633-9.9514 10.816-1.9503 2.1578-4.1206 3.9173-6.4688 5.625 1.5073-10.115 3.7199-20.038 6-30-0.66387-0.11215-1.3277-0.2243-2.0117-0.33984-3.6925-0.81573-7.2276-2.002-10.801-3.2227-1.0393-0.35095-1.0393-0.35095-2.0996-0.70898-1.6969-0.57343-3.3925-1.1506-5.0879-1.7285 12.315-19.769 25.591-38.962 39-58z" fill="#1b99da"/><path transform="translate(589,692)" d="m0 0h2c3.5524 13.952 2.2226 32.929-6 45-4.509 4.2836-8.2058 6.2826-14.438 6.1875-0.92684-0.0064453-1.8537-0.012891-2.8086-0.019531-2.6711-0.16292-5.1473-0.57664-7.7539-1.168-1.3694 9.6302-1.8247 17.296 5.5 24.438 0.825 0.51562 1.65 1.0312 2.5 1.5625 0.59812 0.39188 1.1962 0.78375 1.8125 1.1875 3.3367 1.2393 6.65 1.4588 10.188 1.8125-4.4435 3.832-8.3351 3.9101-14 3-6.7579-2.8023-13.224-8.5503-14.301-16.113-0.032981-6.1894 0.73182-11.318 5.3008-15.887-1.9049-1.9049-5.2205-1.1302-7.75-1.125-1.2323-0.0025781-2.4647-0.0051563-3.7344-0.0078125-3.0079 0.11363-5.5883 0.51803-8.5156 1.1328-8.611 0.60265-14.299 0.37905-20.875-5.625-3.6697-5.8283-3.122-10.868-0.125-16.938 0.66-1.1344 1.32-2.2687 2-3.4375 3.4147 1.1382 3.9381 1.9731 6.0625 4.75 9.003 10.364 20.888 11.078 33.75 8.7383 2.2014-0.6612 4.1392-1.4495 6.1875-2.4883 0.68191-0.34031 1.3638-0.68062 2.0664-1.0312 12.364-6.9446 18.909-20.852 22.934-33.969z" fill="#7499bd"/><path transform="translate(685.8 159.05)" d="m0 0c2.7084 3.6304 2.9331 6.3413 2.7656 10.703-0.017322 0.74371-0.034644 1.4874-0.05249 2.2537-0.62574 15.134-5.8022 28.581-12.51 41.996-2.402-0.23569-4.803-0.47622-7.2031-0.73047-1.7362-0.16732-3.4764-0.30132-5.2188-0.38281-5.9456-0.35878-8.9944-2.0832-13.578-5.8867 0.26555-0.70125 0.53109-1.4025 0.80469-2.125 0.3532-0.94875 0.70641-1.8975 1.0703-2.875 0.34805-0.92812 0.69609-1.8562 1.0547-2.8125 2.2872-6.8115 3.397-12.728 3.3203-19.875 0.0077344-0.73283 0.015469-1.4657 0.023438-2.2207-0.014923-4.1375-0.42501-7.3729-2.2734-11.092 22.141-14.02 22.141-14.02 31.797-6.9531z" fill="#0d509b"/><path transform="translate(390,330)" d="m0 0c-0.33 8.25-0.66 16.5-1 25-2.3512 0.7425-4.7025 1.485-7.125 2.25-12.024 3.9274-23.7 8.78-35.412 13.539-3.9135 1.589-7.836 3.1527-11.768 4.6951-1.3963 0.54938-1.3963 0.54938-2.8208 1.1099-1.7027 0.66871-3.4067 1.334-5.1123 1.9951-4.2324 1.6365-4.2324 1.6365-7.7622 4.4106-1.4474-13.027 8.8457-22.472 18.586-29.715 14.408-10.457 33.803-23.285 52.414-23.285z" fill="#1b99da"/><path transform="translate(391.94 283.94)" d="m0 0c0.97002 0.0045117 1.94 0.0090234 2.9395 0.013672 2.3744 0.011697 4.7487 0.028087 7.123 0.048828-0.19118 0.62761-0.38237 1.2552-0.57935 1.9019-1.6302 5.3866-3.1735 10.781-4.6082 16.223-0.17725 0.67031-0.35449 1.3406-0.53711 2.0312-0.42661 1.6142-0.85123 3.2289-1.2754 4.8438-0.8163-0.099741-1.6326-0.19948-2.4736-0.30225-9.8467-0.9797-18.588-4.2535e-4 -28.276 1.6772-1.4607 0.23836-2.9216 0.47535-4.3828 0.71094-6.6249 0.82779-6.6249 0.82779-12.867 2.9141-2.2866 0.34795-4.5796 0.65351-6.875 0.9375-6.7393 0.85457-13.433 1.891-20.125 3.0625-0.33 0.99-0.66 1.98-1 3 1.2035-12.636 12.395-19.43 22.688-24.938 0.72469-0.3897 1.4494-0.7794 2.196-1.1809 4.0882-2.1062 7.5276-3.2119 12.116-3.8816 0.33-0.66 0.66-1.32 1-2 2.7124-0.78643 5.3719-1.4571 8.125-2.0625 0.74766-0.17338 1.4953-0.34676 2.2656-0.52539 8.2588-1.8777 16.089-2.5498 24.547-2.4746z" fill="#1b99da"/><path transform="translate(715,610)" d="m0 0c9.8852 2.0277 17.345 11.14 20.853 20.204 2.0494 6.3779 2.5766 12.122 2.4597 18.796 0.0032227 0.92039 0.0064453 1.8408 0.0097656 2.7891-0.042822 5.5279-0.67589 10.624-1.8616 16.019-1.5595 7.4215-1.394 15.093 3.5393 21.192 3.0676 2.0382 3.0676 2.0382 6 3-0.51554 6.4985-1.4667 12.662-3 19-6.0941-1.0537-11.48-2.6043-16-7-1.5005-5.2391-1.206-10.366-1-15.75 0.03524-3.0547 0.033036-6.1092 0.035156-9.1641 0.0059669-0.7642 0.011934-1.5284 0.018082-2.3158 0.031308-7.3803-0.67422-14.572-1.6157-21.895-0.20979-1.6605-0.20979-1.6605-0.42383-3.3545-0.32523-2.5088-0.6617-5.0153-1.0137-7.5205-0.58008 0.27715-1.1602 0.5543-1.7578 0.83984-13.21 6.1253-28.768 6.4764-41.242-1.8398v-3c3.4172 0.62741 6.6308 1.5078 9.9375 2.5625 9.5929 2.6116 21.517 3.4695 30.062-2.5625 1.3519-3.4326 0.75438-5.8281-0.21484-9.3164-0.27393-1.0113-0.54785-2.0225-0.83008-3.0645-0.29455-1.0499-0.5891-2.0999-0.89258-3.1816-0.57479-2.0838-1.1465-4.1684-1.7148-6.2539-0.25773-0.9224-0.51546-1.8448-0.78101-2.7952-0.56665-2.3884-0.56665-2.3884-0.56665-5.3884z" fill="#7499bd"/><path transform="translate(425,245)" d="m0 0c-0.59168 0.83402-1.1834 1.668-1.793 2.5273-4.444 6.3122-8.6692 12.593-12.207 19.473-1.9382-1.1238-3.8755-2.2491-5.8125-3.375-1.6184-0.93973-1.6184-0.93973-3.2695-1.8984-2.0063-1.1871-3.9783-2.4335-5.918-3.7266-1.9697-0.36634-1.9697-0.36634-4.1719-0.41406-0.87398-0.038752-1.748-0.077505-2.6484-0.11743-0.9668-0.030857-1.9336-0.061714-2.9297-0.093506-1.0132-0.037947-2.0264-0.075894-3.0703-0.11499-16.717-0.537-33.457-0.34296-50.18-0.26001 13.447-23.406 71.718-25.521 92-12z" fill="#1b99da"/><path transform="translate(399,423)" d="m0 0c2.177 3.2656 3.2596 6.4909 4.4375 10.188 1.7318 5.3234 3.5385 10.593 5.5625 15.812-1.6087 1.1447-1.6087 1.1447-3.25 2.3125-4.9286 3.6877-9.3852 7.8549-13.887 12.039-2.1954 2.0307-4.4074 4.0138-6.6758 5.9609-4.6725 4.0442-9.1513 8.2986-13.646 12.538-3.0891 2.904-6.2018 5.7781-9.3816 8.5828-0.83906 0.74141-0.83906 0.74141-1.6951 1.4978-1.4651 1.0686-1.4651 1.0686-3.4651 1.0686-1.2238-25.292 18.286-47.17 35.468-63.533 2.2135-2.1204 4.3725-4.2919 6.5317-6.4673z" fill="#1b99da"/><path transform="translate(390,379)" d="m0 0c1.7063 8.6494 3.3284 17.197 4 26-1.688 0.36738-1.688 0.36738-3.4102 0.74219-10.747 2.5364-18.645 6.2736-27.5 12.763-4.0631 2.9059-8.2737 5.5909-12.465 8.3071-0.82033 0.53883-1.6407 1.0777-2.4858 1.6328-5.2565 3.4299-10.611 6.5834-16.139 9.5547 0.37313-11.567 6.8666-19.339 14-28 0.53238-0.66773 1.0648-1.3355 1.6133-2.0234 8.0963-9.7774 28.423-28.977 42.387-28.977z" fill="#1b99da"/><path transform="translate(486,273)" d="m0 0c0.61875 0.66 1.2375 1.32 1.875 2 5.3265 5.3114 11.304 10.005 17.75 13.875 3.375 2.125 3.375 2.125 3.375 4.125-1.4688 1.4102-1.4688 1.4102-3.5 3.0625-7.4464 6.3657-13.168 13.128-17.5 21.938-11.526-0.70569-22.938-4.8534-32-12 4.3413-7.2537 20.334-31 30-31v-2z" fill="#c9ced3"/><path transform="translate(234,635)" d="m0 0c-0.57822 4.9006-2.7975 8.4805-5.1875 12.688-3.2773 5.9925-6.0271 11.955-8.1875 18.438-0.22583 0.66604-0.45166 1.3321-0.68433 2.0183-4.3003 13.542-5.5234 26.636-5.4407 40.732 0.0027594 0.85494 0.0055188 1.7099 0.0083618 2.5907 0.16044 27.023 5.5543 62.44 22.492 84.534 2.2871 0.94087 2.2871 0.94087 5 1 1.1163 0.078633 2.2327 0.15727 3.3828 0.23828 10.989 0.21795 20.215-0.94059 28.18-9.1641 1.4375-1.0742 1.4375-1.0742 4.4375-0.074219-1.483 3.7614-3.5043 5.3733-6.8125 7.625-0.85207 0.59039-1.7041 1.1808-2.582 1.7891-8.8576 5.3916-19.64 5.8566-29.605 3.5859 11.057 19.459 22.642 38.949 38.453 54.984 1.5469 2.0156 1.5469 2.0156 1.5469 6.0156-22.135-3.1127-47.407-63.125-54.461-80.563-0.5881-1.4827-1.1725-2.9668-1.7527-4.4526-0.68818-1.7367-1.4247-3.4541-2.1689-5.1675-6.7537-15.992-10.723-34.213-10.82-51.566-0.0085501-1.2246-0.0085501-1.2246-0.017273-2.4739-0.0093921-1.7211-0.015961-3.4422-0.019836-5.1633-0.0096367-2.5783-0.040687-5.1558-0.072266-7.7339-0.092092-14.171 1.563-27.403 6.4375-40.816 0.2935-0.82484 0.58701-1.6497 0.8894-2.4995 9.8143-26.563 9.8143-26.563 16.986-26.563z" fill="#0d509b"/><path transform="translate(418,469)" d="m0 0c3.5356 4.1881 6.3875 8.6568 9.25 13.312 0.68836 1.1108 0.68836 1.1108 1.3906 2.2441 1.1227 1.8127 2.2414 3.6278 3.3594 5.4434-2.5024 4.5576-5.1187 8.6144-8.375 12.688-5.1173 6.5028-9.844 13.256-14.565 20.049-3.8037 5.4733-7.6559 10.899-11.607 16.267-1.1915 1.6367-2.3302 3.3117-3.4531 4.9961-7.532-22.596 7.5321-51.118 20-69 1.3415-1.9947 2.6707-3.9971 4-6z" fill="#1b99da"/><path transform="translate(438,583)" d="m0 0c0.78117 0.29471 1.5623 0.58942 2.3672 0.89307 19.146 7.3159 37.476 16.421 55.32 26.482 17.556 10.799 17.556 10.799 37.312 10.688 3.0509-3.1462 3.9225-6.8837 5-11.062 0.99 0.33 1.98 0.66 3 1-0.42726 6.1953-1.1072 12.087-7.3047 15.133-14.628 4.7065-29.495-4.6723-41.791-11.738-20.496-11.745-41.421-22.017-63.905-29.395-1.2349-0.40734-2.4698-0.81469-3.7422-1.2344-17.323-5.2989-34.57-7.5058-52.633-7.3281-0.93489 0.0042599-1.8698 0.0085199-2.833 0.012909-14.415 0.091139-28.009 1.001-41.792 5.5496-0.84869 0.27296-1.6974 0.54592-2.5718 0.82715-9.0693 2.9782-17.713 6.4954-26.081 11.106-2.3477 1.0664-2.3477 1.0664-6.3477 1.0664 0.15111-3.4075 0.96601-3.9775 3.8594-5.8945 1.2874-0.65828 2.5852-1.2962 3.8906-1.918 0.69867-0.34112 1.3973-0.68224 2.1172-1.0337 42.555-20.045 92.444-19.751 136.13-3.1538z" fill="#0d509b"/><path transform="translate(459,843)" d="m0 0c2.7077 2.0372 5.3417 4.1279 7.9414 6.3008 2.1519 1.835 2.1519 1.835 5.0586 3.6992 0.19336-0.84305 0.38672-1.6861 0.58594-2.5547 0.26039-1.0957 0.52078-2.1914 0.78906-3.3203 0.25523-1.0905 0.51047-2.1811 0.77344-3.3047 0.85156-2.8203 0.85156-2.8203 2.8516-4.8203 12.245 12.027 12.245 12.027 16 17-0.495 1.485-0.495 1.485-1 3-10.158 1.8104-19.97 2.3149-30.26 2.2607-2.4351-0.010776-4.8694-8.8374e-6 -7.3044 0.012695-19.854 0.017157-19.854 0.017157-26.436-3.2734 0.18563-0.94875 0.37125-1.8975 0.5625-2.875 0.72437-3.0237 0.72437-3.0237-0.5625-5.125 0.66-0.33 1.32-0.66 2-1 0.65991-1.5821 1.2548-3.1916 1.8125-4.8125 5.8094-14.853 17.061-7.9989 27.188-1.1875z" fill="#0d509b"/><path transform="translate(501,137)" d="m0 0c5.9754 1.0504 8.735 3.8143 13 8 0.65227 0.63938 1.3045 1.2788 1.9766 1.9375 7.4365 7.8216 19.023 22.743 19.023 34.062 1.32 0.33 2.64 0.66 4 1-0.69037 0.1107-1.3807 0.2214-2.092 0.33545-3.1575 0.50883-6.314 1.0241-9.4705 1.5396-1.086 0.17402-2.1721 0.34805-3.291 0.52734-5.5077 0.904-10.826 1.903-16.146 3.5977-0.43108-2.0117-0.8621-4.0234-1.293-6.0352-0.49781-2.0875-1.0703-4.1579-1.6953-6.2109-3.7139-12.762-3.8361-25.527-4.0117-38.754z" fill="#1b99da"/><path transform="translate(684.31 515.5)" d="m0 0c7.4892 6.6744 8.8797 12.587 7.6875 22.504-2.1124 5.243-4.9761 10.143-10 13-3.9937-0.070478-5.6708-2.5351-8.125-5.4375-7.0698-8.1262-14.642-15.617-22.875-22.562 1.4721-3.834 3.4187-5.1775 6.9375-7.1875 0.87527-0.50918 1.7505-1.0184 2.6523-1.543 7.5804-3.9929 16.766-3.8607 23.723 1.2266z" fill="#7499bd"/><path transform="translate(532,224)" d="m0 0c2.1875 2.125 2.1875 2.125 3.3477 3.4922 4.4545 4.0649 10.975 6.6153 16.652 8.5078-0.33 3.96-0.66 7.92-1 12-1.0132 0.32613-2.0264 0.65227-3.0703 0.98828-1.3516 0.44116-2.7032 0.88258-4.0547 1.3242-0.66516 0.21334-1.3303 0.42668-2.0156 0.64648-3.2252 1.0593-6.0385 2.1385-9.0391 3.7715-7.383 3.3234-15.834-3.6771-21.82-7.793-3.5218-3.4118-6.2249-6.9154-5-11.938 5.4186-6.9484 17.286-12.778 26-11z" fill="#0d509b"/><path transform="translate(337.95 796.04)" d="m0 0c3.5316 3.0977 5.3849 6.6997 7.3633 10.902 0.34611 0.69029 0.69223 1.3806 1.0488 2.0918 1.9364 3.9823 3.1577 7.5163 3.6387 11.971 0.53109-0.50531 1.0622-1.0106 1.6094-1.5312 0.70641-0.64969 1.4128-1.2994 2.1406-1.9688 0.69609-0.64969 1.3922-1.2994 2.1094-1.9688 2.1406-1.5312 2.1406-1.5312 6.1406-1.5312 1.1994 3.788 2.3825 7.5809 3.5625 11.375 0.34225 1.0802 0.68449 2.1605 1.0371 3.2734 0.31904 1.0312 0.63809 2.0625 0.9668 3.125 0.44775 1.4297 0.44775 1.4297 0.90454 2.8882 0.52905 2.3384 0.52905 2.3384-0.47095 4.3384-21.304-10.943-21.304-10.943-29.02-17.793-2.7652-1.6853-3.9699-1.2734-6.9805-0.20703-10.177 6.3224-16.13 14.217-18 26h-4c0.79653-14.603 10.698-22.927 22-31-4.95-4.62-9.9-9.24-15-14 6.0387-6.0387 12.694-11.662 20.949-5.9648z" fill="#0d509b"/><path transform="translate(451,133)" d="m0 0h1c0.33 8.58 0.66 17.16 1 26 3.96 1.65 7.92 3.3 12 5 2.5276 1.5359 4.7947 2.9839 7.125 4.75 0.87193 0.64352 0.87193 0.64352 1.7615 1.3 7.769 5.8206 14.777 11.779 20.114 19.95 0.66 0.66 1.32 1.32 2 2-1.2066 0.53109-2.4131 1.0622-3.6562 1.6094-1.6146 0.71344-3.2292 1.427-4.8438 2.1406-1.1872 0.52207-1.1872 0.52207-2.3984 1.0547-5.1102 2.2619-10.121 4.6595-15.102 7.1953-0.91176-1.6131-1.8234-3.2263-2.7344-4.8398-0.85011-1.451-1.7366-2.8812-2.6562-4.2891-6.4178-9.9813-10.257-21.326-12.969-32.832-0.53003-2.2369-0.53003-2.2369-2.6406-4.0391h2v-25z" fill="#1b99da"/><path transform="translate(447,512)" d="m0 0c3.9762 2.8918 7.0035 6.1842 10.148 9.918 2.3555 2.6487 4.9641 4.9534 7.6641 7.2461 2.7375 4.2323-0.59666 10.795-1.9922 15.324-0.21343 0.70263-0.42686 1.4053-0.64676 2.1292-0.45046 1.4805-0.90271 2.9605-1.3567 4.4399-0.6863 2.2369-1.3673 4.4753-2.0474 6.7141-2.1646 7.1078-4.3697 14.196-6.7695 21.229-2.2569-2.2569-2.8953-3.8974-4-6.875-0.495-1.2955-0.495-1.2955-1-2.6172-2.8776-10.094-3.3389-20.06-3.3125-30.508-0.016113-1.2762-0.032227-2.5523-0.048828-3.8672-0.004162-8.1408 0.9666-15.348 3.3613-23.133z" fill="#1b99da"/><path transform="translate(444.44 203.94)" d="m0 0c0.67466 0.3238 1.3493 0.64759 2.0444 0.9812 4.2899 2.1621 7.2968 4.5124 10.518 8.0813-0.85723 0.72445-1.7145 1.4489-2.5977 2.1953-5.8161 4.9172-11.629 9.8371-17.402 14.805-11.612-9.2704-19.423-20.845-26-34-0.99-0.66-1.98-1.32-3-2 8.8475-4.4237 28.002 5.827 36.438 9.9375z" fill="#1b99da"/><path transform="translate(624.53 275.89)" d="m0 0c2.3982 2.0529 4.6808 4.1889 6.9688 6.3633 12.473 11.405 27.752 18.155 43.5 23.75 1.2506 0.44787 1.2506 0.44787 2.5264 0.90479 28.436 10.294 28.436 10.294 58.036 15.72 0.84691 0.074766 1.6938 0.14953 2.5664 0.22656 0.61746 0.048984 1.2349 0.097969 1.8711 0.14844v3c-2.3124 0.02742-4.625 0.046583-6.9375 0.0625-0.68715 0.0076538-1.3743 0.015308-2.0823 0.023193-3.7745 0.014662-7.2317-0.24445-10.918-1.0232-4.7607-0.6801-6.9319 1.8342-10.043 5.1758-2.0195 1.7617-2.0195 1.7617-8.0195 3.7617 1.65-4.29 3.3-8.58 5-13-1.7093-0.40863-3.4186-0.81727-5.1797-1.2383-28.033-7.0227-54.15-17.108-75.98-36.281-7.0564-6.1635-11.081-8.3816-20.652-7.1055-3.7183 2.7622-3.6437 7.2255-4.1875 11.625-1.32-0.33-2.64-0.66-4-1-0.80693-6.5899 1.1792-9.8095 6-14 7.7633-4.7213 14.805-2.2932 21.531 2.8867z" fill="#0d509b"/><path transform="translate(561,288)" d="m0 0c1.0208 0.875 2.0417 1.75 3.0625 2.625l1.9531 1.6602c1.2377 1.0696 2.4597 2.158 3.6562 3.2734 4.62 4.235 9.6417 6.8556 15.328 9.4414-0.43439 4.8226-2.7436 7.585-5.9375 11-0.49 0.52819-0.98001 1.0564-1.4849 1.6006-5.1369 5.3136-11.762 10.57-19.578 9.3994-3.3284-3.0217-3.6259-6.4302-4.1875-10.75-0.15855-1.1705-0.31711-2.3409-0.48047-3.5469-0.10957-0.89203-0.21914-1.7841-0.33203-2.7031h2c0.01418-0.66645 0.028359-1.3329 0.042969-2.0195 0.39185-7.5723 2.4519-13.294 5.957-19.98z" fill="#0d509b"/><path transform="translate(603.46 153.12)" d="m0 0c4.6459 1.6075 5.8605 6.0589 7.9194 10.255 0.46277 0.85723 0.92555 1.7145 1.4023 2.5977 4.1825 8.3526 3.9121 15.504 0.22266 24.027-10.192 1.5289-10.192 1.5289-14.508-2.1211-2.0062-2.5504-3.7947-5.115-5.4922-7.8789-0.66-0.99-1.32-1.98-2-3-0.76878-6.4065 4.0098-24.292 12.456-23.88z" fill="#0d509b"/><path transform="translate(551,248)" d="m0 0v16c-8.2559 2.65-16.56 5.0193-24.938 7.25-0.99459 0.27022-1.9892 0.54044-3.0139 0.81885-4.7787 1.2562-9.0596 2.3026-14.049 1.9312 7.493-13.031 26.666-26 42-26z" fill="#1b99da"/><path transform="translate(517,848)" d="m0 0v5c-2.8725 0.84307-5.7474 1.6747-8.625 2.5-0.80824 0.23848-1.6165 0.47695-2.4492 0.72266-11.368 3.2348-11.368 3.2348-15.234-0.38281-0.70254-0.95777-1.4051-1.9155-2.1289-2.9023-3.5763-4.6916-7.2726-8.8959-11.562-12.938 4.3814-13.144 33.01 3.8236 40 8z" fill="#0d509b"/><path transform="translate(398,827)" d="m0 0c9.0437-0.14587 12.862 3.7297 19 10 0.65227 0.61746 1.3045 1.2349 1.9766 1.8711 11.423 10.894 11.423 10.894 10.398 16.629-0.45375 0.825-0.9075 1.65-1.375 2.5-3.3426-0.26517-6.6691-0.61549-10-1-0.83402-0.076055-1.668-0.15211-2.5273-0.23047-4.3201-0.61099-6.6476-1.1828-8.4961-5.3086-0.49234-1.0776-0.49234-1.0776-0.99463-2.177-0.32404-0.7537-0.64808-1.5074-0.98193-2.2839-0.32017-0.72598-0.64034-1.452-0.97021-2.2-0.95165-2.1945-1.8699-4.4004-2.7798-6.6125-0.31582-0.74959-0.63164-1.4992-0.95703-2.2715-2.293-5.5537-2.293-5.5537-2.293-8.916z" fill="#0d509b"/><path transform="translate(765,196)" d="m0 0c0.66 0.33 1.32 0.66 2 1-0.48727 0.50016-0.97453 1.0003-1.4766 1.5156-2.0577 3.3556-1.8769 6.4201-1.8984 10.234-0.37623 9.7078-2.3151 14.501-10.75 19.5-0.8482 0.43828-1.6964 0.87656-2.5703 1.3281-3.6739 2.2666-5.124 4.2929-5.8047 8.5469 0.83636 6.4818 4.0072 11.817 7.8125 17.062 3.5494 6.1494 3.198 15.391 0.40625 21.715-1.9975 3.0207-4.1629 5.5418-6.7188 8.0977-3.3512-0.32431-4.7507-1.6225-7-4 0.48211-0.38672 0.96422-0.77344 1.4609-1.1719 0.94746-0.78117 0.94746-0.78117 1.9141-1.5781 0.93973-0.7657 0.93973-0.7657 1.8984-1.5469 4.0144-3.9599 4.3766-8.2556 3.7266-13.703-1.1915-3.5084-2.5976-6.3457-4.5352-9.4961-4.6121-7.6868-6.9209-14.501-2.7773-22.941 3.9609-4.3891 8.3267-7.263 13.445-10.121 4.3768-3.3787 5.1738-7.0617 5.2422-12.379 0.31931-5.7547 1.4221-8.1829 5.625-12.062z" fill="#1b99da"/><path transform="translate(600,803)" d="m0 0c-7.5595 9.7194-17.441 17.1-27.5 24.062-0.67015 0.46503-1.3403 0.93006-2.0308 1.4092-3.3861 2.2949-6.5654 4.1995-10.469 5.5283v-2c-0.66-0.66-1.32-1.32-2-2 1.98 0.33 3.96 0.66 6 1-0.36094-0.80824-0.72187-1.6165-1.0938-2.4492-0.46406-1.0686-0.92813-2.1373-1.4062-3.2383-0.46406-1.0557-0.92813-2.1115-1.4062-3.1992-1.0433-2.9696-1.3244-5.0052-1.0938-8.1133 1.2697-0.29133 2.5395-0.58266 3.8477-0.88281 9.3769-2.2121 28.693-12.655 37.152-10.117z" fill="#0d509b"/><path transform="translate(610,530)" d="m0 0c11.508-0.51787 19.707 0.34166 27 10 2.2306 4.2044 2.2408 8.1596 2.125 12.812-0.0090234 0.69287-0.018047 1.3857-0.027344 2.0996-0.023395 1.6961-0.05926 3.392-0.097656 5.0879-0.66 0.33-1.32 0.66-2 1-0.29133-0.53109-0.58266-1.0622-0.88281-1.6094-4.5721-7.879-9.686-11.202-18.805-11.953-0.99387-0.083789-1.9877-0.16758-3.0117-0.25391-1.1389-0.090879-1.1389-0.090879-2.3008-0.18359 0.33387-0.75023 0.66773-1.5005 1.0117-2.2734 1.3139-3.625 0.88272-6.0112-0.011719-9.7266-1.4579-1.7939-1.4579-1.7939-3-3v-2z" fill="#0d509b"/><path transform="translate(552,269)" d="m0 0c1.5663 3.0197 2.8763 6.0865 4.125 9.25 0.3532 0.89203 0.70641 1.7841 1.0703 2.7031 0.26555 0.67547 0.53109 1.3509 0.80469 2.0469-1.0441 0.54527-2.0883 1.0905-3.1641 1.6523-3.7256 2.1344-6.3506 4.6847-9.2109 7.9102-0.46334 0.52014-0.92667 1.0403-1.4041 1.5762-1.4218 1.6082-2.8248 3.2308-4.2209 4.8613-0.44263 0.51675-0.88526 1.0335-1.3413 1.5659-5.4908 6.2757-5.4908 6.2757-9.6587 13.434-2.7742-2.7742-1.53-8.5271-1-12 3.6481-11.282 10.643-19.843 19-28 0.94529-0.94273 1.8893-1.8867 2.832-2.832 0.71543-0.71543 1.4309-1.4309 2.168-2.168z" fill="#1b99da"/><path transform="translate(607,309)" d="m0 0c5.4443-0.33807 9.2136 0.60651 13.996 3.043 0.65799 0.32 1.316 0.64 1.9939 0.9697 1.4162 0.68901 2.8297 1.3835 4.2407 2.0831 3.7801 1.8701 7.584 3.6901 11.39 5.5058 0.7783 0.37152 1.5566 0.74303 2.3585 1.1258 11.648 5.5152 23.633 10.214 35.623 14.923 3.0205 1.2 6.0181 2.4402 9.0103 3.709 10.831 4.5465 20.967 8.0531 31.387 0.64062 1.7033-1.6292 3.3816-3.2864 5-5h2c-0.87833 6.4219-7.5612 10.781-13 13.5-10.713 1.7855-18.744-1.6253-28.5-5.5625-1.5971-0.63275-3.1942-1.2652-4.7915-1.8975-14.247-5.6846-28.212-11.956-42.109-18.441-4.1546-1.9371-8.3261-3.8311-12.514-5.6965-1.0385-0.46374-2.077-0.92748-3.147-1.4053-1.9015-0.84727-3.8047-1.6906-5.71-2.5293-0.81807-0.36706-1.6361-0.73412-2.479-1.1123-0.70641-0.313-1.4128-0.626-2.1406-0.94849-1.6094-0.90698-1.6094-0.90698-2.6094-2.907z" fill="#c9ced3"/><path transform="translate(526,255)" d="m0 0c0.66 0.66 1.32 1.32 2 2-0.79664 0.56848-1.5933 1.137-2.4141 1.7227-11.737 7.841-11.737 7.841-16.586 20.277 3.5087 3.0959 6.492 4.7419 11 6-2.4177 2.9267-4.2013 3.7998-8 4-2.499-1.2554-4.5984-2.4865-6.875-4.0625-0.61698-0.41177-1.234-0.82355-1.8696-1.2478-4.3563-2.9501-8.3965-6.1065-12.255-9.6897 0.53693-3.4988 1.3021-4.5952 4.4297-6.2188 0.70794-0.3731 1.4159-0.74621 2.1453-1.1306 1.1385-0.56956 1.1385-0.56956 2.3-1.1506 0.76997-0.39582 1.5399-0.79165 2.3333-1.1995 5.7793-2.9196 11.61-5.3581 17.792-7.3005 1.2169-0.4125 2.4338-0.825 3.6875-1.25 1.1447-0.37125 1.1447-0.37125 2.3125-0.75z" fill="#c9ced3"/><path transform="translate(641,231)" d="m0 0c5.3305 2.764 7.6043 4.9667 8.375 10.875-0.62412 5.201-3.0882 8.2671-7.375 11.125-5.7777 0.93049-9.9028 0.46969-14-4-2.2885-3.2693-2.4716-6.0698-2-10 3.7011-6.6364 7.3316-9.1887 15-8z" fill="#0d509b"/><path transform="translate(782.14 659.54)" d="m0 0c5.1563 4.0622 8.5218 9.883 8.8594 16.465-0.76312-0.33-1.5263-0.66-2.3125-1-6.7456-1.8293-13.276-1.9215-19.688 1-0.2475-0.78375-0.495-1.5675-0.75-2.375-1.4508-3.0468-2.0697-3.6532-5.25-4.625-3.167-0.16725-3.167-0.16725-6 0 2.8216-12.133 14.937-15.199 25.141-9.4648z" fill="#0d509b"/><path transform="translate(234,635)" d="m0 0c-0.57829 4.9013-2.7984 8.4796-5.1875 12.688-10.542 19.373-15.202 41.061-15.398 63.056-0.11939 6.4523-0.11939 6.4523-3.4148 9.2563-0.29691-15.592 0.61018-85 24-85z" fill="#0d509b"/><path transform="translate(380,571)" d="m0 0v1c-1.9703 0.090879-1.9703 0.090879-3.9805 0.18359-1.7357 0.084439-3.4714 0.16909-5.207 0.25391-0.86432 0.039316-1.7286 0.078633-2.6191 0.11914-0.84111 0.041895-1.6822 0.083789-2.5488 0.12695-1.1547 0.054987-1.1547 0.054987-2.3328 0.11108-2.4605 0.21853-4.8896 0.72089-7.3118 1.2053 8.25 0.33 16.5 0.66 25 1v1c-1.228 0.0061633-1.228 0.0061633-2.4807 0.012451-28.41 0.24828-54.897 3.9928-80.172 17.921-2.3477 1.0664-2.3477 1.0664-6.3477 1.0664 0.15111-3.4075 0.96601-3.9775 3.8594-5.8945 1.2874-0.65828 2.5852-1.2962 3.8906-1.918 0.69867-0.34112 1.3973-0.68224 2.1172-1.0337 24.839-11.7 50.882-15.916 78.133-15.154z" fill="#0d509b"/><path transform="translate(436,837)" d="m0 0c3.0906 4.0553 5.8533 8.2859 8.625 12.562 0.7541 1.1515 0.7541 1.1515 1.5234 2.3262 0.47953 0.73928 0.95906 1.4786 1.4531 2.2402 0.43651 0.67104 0.87302 1.3421 1.3228 2.0334 1.0757 1.8376 1.0757 1.8376 2.0757 4.8376-7.4982 0.29277-16.139 0.43027-23-3 0.18563-0.94875 0.37125-1.8975 0.5625-2.875 0.72437-3.0237 0.72437-3.0237-0.5625-5.125 0.66-0.33 1.32-0.66 2-1 0.73071-1.6184 1.3878-3.2706 2-4.9375 1.7859-4.8484 1.7859-4.8484 4-7.0625z" fill="#1b99da"/><path transform="translate(546,935)" d="m0 0c-1.3588 5.4353-3.8054 4.8508-8.6875 6.25-10.327 2.9012-20.731 5.0166-31.312 6.75-0.71495 0.12004-1.4299 0.24009-2.1665 0.36377-15.779 2.5335-31.905 1.8269-47.833 1.6362v-1h30v-2c-1.32-0.66-2.64-1.32-4-2 0.7487-0.069932 1.4974-0.13986 2.2688-0.21191 18.308-1.744 35.871-4.166 53.552-9.2607 2.7654-0.66904 5.3495-0.75682 8.1797-0.52734z" fill="#0d509b"/><path transform="translate(397,828)" d="m0 0c3.4703 4.3224 5.2245 9.0107 7.25 14.125 0.37641 0.9191 0.75281 1.8382 1.1406 2.7852 0.35062 0.87785 0.70125 1.7557 1.0625 2.6602 0.3213 0.80196 0.6426 1.6039 0.97363 2.4302 0.57324 1.9995 0.57324 1.9995-0.42676 3.9995-2.7301-0.78862-5.459-1.5808-8.1875-2.375-1.1534-0.33258-1.1534-0.33258-2.3301-0.67188-3.9165-1.143-7.726-2.3421-11.482-3.9531 1.241-2.4217 2.4922-4.8371 3.75-7.25 0.34805-0.68191 0.69609-1.3638 1.0547-2.0664 1.9973-3.8098 3.9074-6.8104 7.1953-9.6836z" fill="#1b99da"/><path transform="translate(652,713)" d="m0 0h1c0.99151 18.839-6.6558 36.098-16 52-0.68836 1.28-0.68836 1.28-1.3906 2.5859-2.8555 4.6771-4.7992 5.9015-10.359 6.0391-4.8782-0.25324-4.8782-0.25324-7.25-2.625 0.64066-0.34031 1.2813-0.68062 1.9414-1.0312 19.434-10.89 28.696-35.787 32.059-56.969z" fill="#7499bd"/><path transform="translate(359,813)" d="m0 0c3.9303 1.3101 3.706 2.217 4.8594 6.0586 0.31066 1.0254 0.62133 2.0509 0.94141 3.1074 0.31324 1.0796 0.62648 2.1592 0.94922 3.2715 0.32871 1.0757 0.65742 2.1514 0.99609 3.2598 2.3897 8.0312 2.3897 8.0312 1.2539 10.303-2.3772-1.246-4.7517-2.4967-7.125-3.75-0.66516-0.34805-1.3303-0.69609-2.0156-1.0547-4.1288-2.1859-8.0165-4.5377-11.859-7.1953 2.3227-5.9519 6.1845-9.0807 11-13 0.33-0.33 0.66-0.66 1-1z" fill="#1b99da"/><path transform="translate(476,839)" d="m0 0c6.3343 5.095 11.628 10.925 17 17-0.33 0.99-0.66 1.98-1 3-2.2285 0.33774-4.4578 0.67002-6.6875 1-1.2414 0.18562-2.4827 0.37125-3.7617 0.5625-2.9096 0.3585-5.6278 0.52692-8.5508 0.4375-0.45283-15.094-0.45283-15.094 3-22z" fill="#7499bd"/><path transform="translate(355,918)" d="m0 0c0.91157 0.40726 0.91157 0.40726 1.8416 0.82275 20.116 8.9542 40.347 17.358 62.158 21.177v1c-0.68707-0.011602-1.3741-0.023203-2.082-0.035156-0.90105-0.0090234-1.8021-0.018047-2.7305-0.027344-0.89332-0.011602-1.7866-0.023203-2.707-0.035156-2.6146-0.012443-2.6146-0.012443-5.4805 1.0977-3.1311-0.46211-6.1504-1.4324-9.1875-2.3125-0.91822-0.26418-1.8364-0.52835-2.7825-0.80054-14.894-4.4673-29.216-10.785-43.03-17.887 1.32-0.33 2.64-0.66 4-1v-2z" fill="#0d509b"/><path transform="translate(561,288)" d="m0 0c1.1289 0.93274 2.253 1.8714 3.375 2.8125 0.62648 0.52207 1.253 1.0441 1.8984 1.582 1.7266 1.6055 1.7266 1.6055 3.7266 4.6055h-2c-0.2475 0.7902-0.495 1.5804-0.75 2.3945-1.5653 4.5148-3.3914 8.8924-5.25 13.293-0.35578 0.854-0.71156 1.708-1.0781 2.5879-0.34547 0.82049-0.69094 1.641-1.0469 2.4863-0.31195 0.7421-0.62391 1.4842-0.94531 2.2488-0.92969 1.9895-0.92969 1.9895-2.9297 4.9895-1.5708-5.0265-2.4485-9.7612-3-15h2c0.01418-0.66645 0.028359-1.3329 0.042969-2.0195 0.39185-7.5723 2.4519-13.294 5.957-19.98z" fill="#1b99da"/><path transform="translate(544.62 221.81)" d="m0 0c1.5933-0.018369 1.5933-0.018369 3.2188-0.037109 1.0132-0.0019336 2.0264-0.0038672 3.0703-0.0058594 0.92764-0.0041089 1.8553-0.0082178 2.811-0.012451 2.2749 0.24292 2.2749 0.24292 4.2749 2.2429-0.6228 1.5842-1.2483 3.1673-1.875 4.75-0.34805 0.88172-0.69609 1.7634-1.0547 2.6719-0.93498 2.2521-1.9481 4.4146-3.0703 6.5781v-2c-0.78375-0.04125-1.5675-0.0825-2.375-0.125-6.4667-1.5609-12.548-5.5933-17.625-9.875v-2c-0.99-0.33-1.98-0.66-3-1 5.125-1.5063 10.327-1.1843 15.625-1.1875z" fill="#1b99da"/><path transform="translate(560,741)" d="m0 0c-0.11859 0.90621-0.23719 1.8124-0.35938 2.7461-0.97319 9.1966-1.0154 15.988 5.8594 22.691 0.825 0.51562 1.65 1.0312 2.5 1.5625 0.59812 0.39188 1.1962 0.78375 1.8125 1.1875 3.3367 1.2393 6.65 1.4588 10.188 1.8125-4.4435 3.832-8.3351 3.9101-14 3-6.7579-2.8023-13.224-8.5503-14.301-16.113-0.029275-5.4939 0.83974-16.887 8.3008-16.887z" fill="#0d509b"/><path transform="translate(680,553)" d="m0 0c0.99 0.33 1.98 0.66 3 1-2.5431 14.146-21.276 26.448-33.406 31.387-6.3766 2.1231-11.891 3.0677-18.594 2.6133v-4c0.825-0.051563 1.65-0.10312 2.5-0.15625 20.31-1.9947 35.893-13.626 46.5-30.844z" fill="#0d509b"/><path transform="translate(537,873)" d="m0 0h3c0.0038672 1.1292 0.0038672 1.1292 0.0078125 2.2812 0.63023 17.31 8.5898 32.926 19.992 45.719v2c0.59812 0.26813 1.1962 0.53625 1.8125 0.8125 2.1597 1.1724 3.5454 2.3812 5.1875 4.1875-0.33 0.99-0.66 1.98-1 3-12.724-2.1627-21.759-23.373-26-34-0.3184-0.71027-0.6368-1.4205-0.96484-2.1523-2.8502-7.0531-2.3011-14.373-2.0352-21.848z" fill="#0d509b"/><path transform="translate(550,193)" d="m0 0c0.33 0.66 0.66 1.32 1 2 1.9554 0.2806 1.9554 0.2806 4.3125 0.3125 6.4656 0.48656 11.865 2.9764 17.688 5.6875 0 3.9382-1.2095 4.5278-4 7.1875-0.7425 0.71543-1.485 1.4309-2.25 2.168-0.5775 0.5427-1.155 1.0854-1.75 1.6445-7.2291-3.2499-11.393-9.1861-15-16-0.66-0.66-1.32-1.32-2-2 0.66-0.33 1.32-0.66 2-1z" fill="#1b99da"/><path transform="translate(706,318)" d="m0 0c5.709-0.19708 10.402 0.38107 15.875 1.9375 6.0348 1.6215 11.86 2.7613 18.125 3.0625v3c-2.3124 0.02742-4.625 0.046583-6.9375 0.0625-0.68715 0.0076538-1.3743 0.015308-2.0823 0.023193-3.7745 0.014662-7.2317-0.24445-10.918-1.0232-4.7607-0.6801-6.9319 1.8342-10.043 5.1758-2.0195 1.7617-2.0195 1.7617-8.0195 3.7617 1.65-4.29 3.3-8.58 5-13h-2c0.33-0.99 0.66-1.98 1-3z" fill="#1b99da"/><path transform="translate(515,833)" d="m0 0c0.33 0.66 0.66 1.32 1 2 1.9971 0.67539 3.9977 1.3404 6 2 2.0696 1.1164 4.1118 2.2849 6.125 3.5 3.2648 1.9606 6.4648 3.7949 9.875 5.5-6.93 2.31-13.86 4.62-21 7-0.33-1.65-0.66-3.3-1-5-0.66-0.66-1.32-1.32-2-2h2c-0.33-0.99-0.66-1.98-1-3-0.06803-1.728-0.084956-3.4584-0.0625-5.1875 0.0090234-0.90105 0.018047-1.8021 0.027344-2.7305 0.011602-0.68707 0.023203-1.3741 0.035156-2.082z" fill="#7499bd"/><path transform="translate(610,846)" d="m0 0c-0.0090234 0.77602-0.018047 1.552-0.027344 2.3516 0.49273 17.953 10.417 30.242 25.027 39.648-0.33 0.99-0.66 1.98-1 3-12.237-2.2048-21.509-16.454-26-27-0.43313-0.96938-0.86625-1.9388-1.3125-2.9375-3.3814-15.062-3.3814-15.062 3.3125-15.062z" fill="#0d509b"/><path transform="translate(673,701)" d="m0 0c3.1528 1.4666 6.0389 3.2673 8.9751 5.123 13.543 8.4789 27.895 14.186 44.025 10.877v4c-17.848 5.9494-36.616-4.2009-50.965-14.031-2.0352-1.9688-2.0352-1.9688-2.0352-5.9688z" fill="#0d509b"/><path transform="translate(559,814)" d="m0 0c4.3886 0.84587 8.607 1.6961 12.688 3.5625 3.1731 1.377 5.8954 2.0208 9.3125 2.4375-3.0307 3.2415-6.2431 5.6745-9.9375 8.125-1.5295 1.0248-1.5295 1.0248-3.0898 2.0703-2.6239 1.593-5.0904 2.7749-7.9727 3.8047v-2c-0.66-0.66-1.32-1.32-2-2 1.98 0.33 3.96 0.66 6 1-0.36094-0.80824-0.72187-1.6165-1.0938-2.4492-0.69609-1.6029-0.69609-1.6029-1.4062-3.2383-0.46406-1.0557-0.92813-2.1115-1.4062-3.1992-1.0433-2.9696-1.3244-5.0052-1.0938-8.1133z" fill="#1b99da"/><path transform="translate(617,220)" d="m0 0c18.888 2.1816 35.857 6.2861 47 23v3c-4.6535 0-4.6082-0.20087-7.25-3.625-7.7385-9.1925-16.585-12.553-27.639-16.595-2.7663-1.0217-5.5025-2.112-8.2363-3.2173-0.7657-0.30809-1.5314-0.61617-2.3203-0.93359-0.51305-0.20754-1.0261-0.41508-1.5547-0.62891v-1z" fill="#0d509b"/><path transform="translate(785,660)" d="m0 0c6.9762 0.5581 12.32 2.802 16 9 1.0932 3.3701 1.1337 6.5348 1.125 10.062 0.0038672 1.5643 0.0038672 1.5643 0.0078125 3.1602-0.13281 2.7773-0.13281 2.7773-1.1328 5.7773h-2c-0.22687-1.2169-0.45375-2.4338-0.6875-3.6875-0.80745-3.299-1.2469-4.2469-3.75-6.75-3.0148-3.0148-3.6403-5.3342-4.8047-9.3359-1.0857-3.1899-2.7553-5.5335-4.7578-8.2266z" fill="#0d509b"/><path transform="translate(333,794)" d="m0 0c-0.14166 2.3961-0.28819 4.7918-0.4375 7.1875-0.058975 1.0103-0.058975 1.0103-0.11914 2.041-0.23264 3.6685-0.61543 7.1884-1.4434 10.771-5.4704-3.7904-9.8996-7.7503-14-13 5.0605-4.3163 9.2282-7.2288 16-7z" fill="#1b99da"/><path transform="translate(662,785)" d="m0 0c2.7365 0.32701 3.7083 0.51706 5.168 2.9336 0.33645 0.82629 0.67289 1.6526 1.0195 2.5039 5.3684 11.546 15.377 20.347 26.812 25.562-0.33 1.32-0.66 2.64-1 4-14.177-3.9688-26.331-17.786-32-31v-4z" fill="#0d509b"/><path transform="translate(680,640)" d="m0 0c3.4172 0.62741 6.6308 1.5078 9.9375 2.5625 9.6742 2.6337 18.968 2.72 28.074-1.6875 1.9883-0.875 1.9883-0.875 4.9883-0.875-0.52423 3.624-1.392 4.6496-4.6875 6.1875-0.66387 0.32355-1.3277 0.64711-2.0117 0.98047-11.702 4.2319-25.971 2.7188-36.301-4.168v-3z" fill="#0d509b"/><path transform="translate(278,788)" d="m0 0c-1.483 3.7614-3.5043 5.3733-6.8125 7.625-0.85207 0.59039-1.7041 1.1808-2.582 1.7891-7.2033 4.3846-14.266 4.7389-22.48 4.6484-0.78375-0.0045117-1.5675-0.0090234-2.375-0.013672-1.9167-0.011687-3.8334-0.029619-5.75-0.048828v-5c1.2439 0.046406 2.4879 0.092813 3.7695 0.14062 12.213 0.32165 22.768 0.25227 31.793-9.0664 1.4375-1.0742 1.4375-1.0742 4.4375-0.074219z" fill="#0d509b"/><path transform="translate(213,697)" d="m0 0h1c0.0093457 0.86988 0.018691 1.7398 0.02832 2.636 0.26391 22.675 0.26391 22.675 4.2295 44.942 0.66846 3.0819 0.90892 4.5567-0.25781 7.4219v-3h-4c-6.6369-25.045-6.6369-25.045-2-32 0.36508-2.2213 0.36508-2.2213 0.41406-4.668 0.038672-0.89268 0.077344-1.7854 0.11719-2.7051 0.030937-0.92877 0.061875-1.8575 0.09375-2.8145 0.038672-0.94037 0.077344-1.8807 0.11719-2.8496 0.094244-2.3208 0.17985-4.6415 0.25781-6.9629z" fill="#0d509b"/><path transform="translate(440,945)" d="m0 0c23.265 0.495 23.265 0.495 47 1-0.33 0.99-0.66 1.98-1 3-5.7475 0.049511-11.495 0.085772-17.242 0.10986-1.9544 0.010045-3.9089 0.023684-5.8633 0.041016-2.8125 0.024313-5.6247 0.035619-8.4373 0.044434-0.87102 0.010323-1.742 0.020645-2.6395 0.031281-4.3952 8.0922e-4 -7.8189-0.15743-11.818-2.2266v-2z" fill="#0d509b"/><path transform="translate(373.7 571.81)" d="m0 0c2.0298-0.0021759 4.0591-0.02033 6.0889-0.039307 7.0666-0.010495 13.394 0.3252 20.211 2.2246v3c-1.6049-0.090879-1.6049-0.090879-3.2422-0.18359-13.913-0.76875-27.833-1.3094-41.758-1.8164 2.5936-5.1871 13.713-3.1859 18.7-3.1853z" fill="#0d509b"/><path transform="translate(477,877)" d="m0 0c-1.2483 2.581-2.5671 4.884-4.125 7.3125-4.09 8.1039-2.2959 18.984-0.875 27.688h-3c-5.4744-9.4889-3.7522-21.511 0.94922-30.895 2.2083-3.727 2.481-4.1055 7.0508-4.1055z" fill="#0d509b"/><path transform="translate(746,727)" d="m0 0c7.1325 0.48356 7.1325 0.48356 9.5039 4.6289 0.81775 2.0892 1.5843 4.1994 2.293 6.3281 1.2841 3.2478 2.9076 5.434 5.2031 8.043-6.8294-0.27875-11.428-2.8645-15.105-8.7773-1.6041-3.4416-2.2374-6.4511-1.8945-10.223z" fill="#0d509b"/><path transform="translate(508,943)" d="m0 0 1 4c-16.364 5.4545-35.959 3.204-53 3v-1h30v-2c-1.32-0.66-2.64-1.32-4-2 3.2078-0.33833 6.4163-0.66976 9.625-1 0.90363-0.095391 1.8073-0.19078 2.7383-0.28906 4.5673-0.46674 9.0379-0.83317 13.637-0.71094z" fill="#1b99da"/><path transform="translate(765,196)" d="m0 0c0.66 0.33 1.32 0.66 2 1-0.48727 0.50016-0.97453 1.0003-1.4766 1.5156-2.0572 3.3549-1.8786 6.4204-1.8984 10.234-0.21988 6.3025-0.65407 11.854-5.625 16.25-2.9375 1-2.9375 1-6 1-1.1137 0.020625-2.2275 0.04125-3.375 0.0625-0.86625-0.020625-1.7325-0.04125-2.625-0.0625 2.2997-1.769 4.583-3.3569 7.0625-4.875 5.0091-3.6236 6.2344-6.9968 6.3125-13.062 0.31931-5.7547 1.4221-8.1829 5.625-12.062z" fill="#7499bd"/><path transform="translate(457.06 442.44)" d="m0 0c0.63937 0.18563 1.2788 0.37125 1.9375 0.5625-1.5542 4.6625-5.7892 6.4308-10.352 7.6055-2.9526 0.43984-5.7885 0.56333-8.7734 0.58203-1.0338 0.01418-2.0677 0.028359-3.1328 0.042969-2.7422-0.23047-2.7422-0.23047-5.7422-2.2305v-3c1.485 0.052207 1.485 0.052207 3 0.10547 7.0221 0.17151 17.924-4.758 23.062-3.668z" fill="#0d509b"/><path transform="translate(513.06 287.62)" d="m0 0c1.9664 0.53947 1.9664 0.53947 3.9375-0.25 2.8848-0.54089 3.8109 0.84639 6 2.625-0.94359 0.43699-0.94359 0.43699-1.9062 0.88281-5.8934 2.8225-11.024 5.9965-16.094 10.117 0.33-2.31 0.66-4.62 1-7 0.99-0.33 1.98-0.66 3-1l-6-6c3.8319-1.2773 6.269-0.52456 10.062 0.625z" fill="#0d509b"/><path transform="translate(685,310)" d="m0 0c3.3573 0.62967 6.595 1.4191 9.8633 2.4102 1.3293 0.40122 1.3293 0.40122 2.6855 0.81055 0.91201 0.27779 1.824 0.55559 2.7637 0.8418 0.93135 0.28166 1.8627 0.56332 2.8223 0.85352 2.289 0.69258 4.5774 1.3873 6.8652 2.084-3.1076 3.1076-6.0758 3.3973-10.362 2.5122-2.6947-0.75393-5.3523-1.5825-8.0127-2.4497-0.92684-0.29068-1.8537-0.58137-2.8086-0.88086-2.2761-0.71567-4.5477-1.4431-6.8164-2.1816 0.99-1.32 1.98-2.64 3-4z" fill="#0d509b"/><path transform="translate(483,349)" d="m0 0c0.33 11.55 0.66 23.1 1 35h-3c-1.4736-2.9472-1.1423-5.9304-1.1328-9.1602-9.5673e-4 -0.70507-0.0019135-1.4101-0.0028992-2.1366-6.8062e-4 -1.4904 0.0011655-2.9807 0.0053406-4.4711 0.0053579-2.289 4.7004e-5 -4.5779-0.0063477-6.8669 6.6065e-4 -1.446 0.0019415-2.8919 0.0039062-4.3379-0.0020242-0.68853-0.0040485-1.3771-0.006134-2.0864 0.029531-5.9409 0.029531-5.9409 3.1389-5.9409z" fill="#0d509b"/></svg>