<?xml version="1.0" encoding="UTF-8" standalone="no"?>
<!-- Created with Inkscape (http://www.inkscape.org/) -->

<svg
   version="1.1"
   id="svg1"
   width="2666.6667"
   height="2666.6667"
   viewBox="0 0 2666.6667 2666.6667"
   xmlns="http://www.w3.org/2000/svg"
   xmlns:svg="http://www.w3.org/2000/svg">
  <defs
     id="defs1" />
  <g
     id="g1">
    <g
       id="group-R5" transform="scale(1.5) translate(-444.44445,-444.44445)">
      <path
         id="path2"
         d="m 10185.4,11781.4 c -12.8,21.1 -25.1,42.5 -36.4,64.4 11.4,-21.8 25.8,-42.2 36.4,-64.4"
         style="fill:#191970;fill-opacity:1;fill-rule:nonzero;stroke:none"
         transform="matrix(0.13333333,0,0,-0.13333333,0,2666.6667)" />
      <path
         id="path3"
         d="m 7534.42,10493.5 c 713.73,-148.4 1315.04,-42.3 1685.08,33.8 361.3,74.3 549.8,154.5 841.2,250.4 494.3,162.8 1223.8,350.7 2197.5,424.4 -395.7,-46.2 -787.5,-125.1 -1170,-236.4 -805.9,-234.4 -1567.35,-609.3 -2380.88,-815.7 -813.54,-206.3 -1727.35,-224.8 -2439.4,219.5 -876.1,546.6 -1235.09,1775.8 -818.89,2720.9 416.2,945 1538.17,1508.9 2551.45,1309.8 135.54,-26.7 267.36,-72.3 390.97,-134.3 -1.42,2.5 -2.84,5 -4.26,7.5 -17.32,30.7 -35.18,63.5 -33.64,98.8 0.9,20.7 8.43,40 16.39,59.4 -145.38,240.3 -337.99,452.2 -564.27,618.7 15.94,48.3 88.32,30.6 131.18,3.3 42.87,-27.3 113.98,-47.1 132.22,0.3 9.68,25.2 -5.68,52.4 -20.61,74.9 -326.51,490.9 -741.61,922.7 -1219.26,1268.4 830.17,-376.4 1525.75,-1027.2 1954.71,-1831.5 12.37,-6.8 19.27,-18.5 22.28,-32.1 49.38,-57 114.18,-101.9 181.45,-139.7 -69.06,65.9 -129.15,142.1 -179.1,221.6 125.28,-19.4 241.13,-80.6 341.59,-157.9 100.45,-77.3 189.77,-171.5 275.93,-264.5 -100.69,172.4 -250.12,306.7 -425.51,402.1 1.39,3 2.88,5.9 4.4,8.7 -13.27,7.9 -25.04,21.6 -20.44,35.5 -112.06,422.6 -80.34,878.4 88.3,1281.8 -54.86,-277.4 -59.6,-564.7 -13.91,-843.8 2.09,-12.8 5.61,-27.4 17.23,-33 21.9,-10.7 40.39,19.5 46.53,43 6.14,23.6 25.8,53.5 47.15,41.7 -27.33,-144.3 -23.03,-294.4 11.97,-437.1 25.75,-6.1 44.81,-17.7 54,-23.9 35.49,-29.4 84.9,-77 125.63,-147.1 22.15,-38.1 22.08,-49 42.77,-93.5 59.28,-127.5 142.87,-216.1 248.49,-328.1 29.32,-31.1 44.29,-46.9 59.3,-58.8 93.64,-73.9 203.08,-87.2 273.63,-88 53,-9.4 89.5,-58 113.8,-106 24.4,-48 43.8,-101 84.8,-135.9 -76.5,7.9 -148.3,32.6 -214.19,72.3 64.19,-56.8 152.79,-85.1 238.39,-80.1 17.1,1 35.4,3.1 50.6,-5 26.3,-13.8 29.8,-51.6 18,-78.9 -14.6,-33.8 -48,-58.8 -84.5,-63.4 -35,-4.4 -69.7,8.7 -101.4,23.9 -57.3,27.5 -110.4,62.8 -166.28,93 -55.89,30.2 -115.83,55.7 -179.14,60.9 -63.31,5.3 -130.79,-12 -175.51,-57.1 9.78,8.5 20.17,14.9 32.94,17.2 12.78,2.2 28.19,-5.1 29.74,-18 1.35,-11.2 -7.62,-20.7 -15.98,-28.2 -10.83,-9.8 -22.6,-19.7 -36.94,-22.4 -14.92,-2.7 -29.95,2.8 -44.37,7.5 -38.26,12.6 -78.25,19.8 -118.48,21.5 28.86,-5.5 56.79,-23.2 77.96,-43.4 29.88,-28.5 52.49,-63.9 82.27,-92.5 79.47,-76.3 201.87,-94.3 309.42,-70.3 12.34,2.8 24.86,6.1 37.45,4.9 12.59,-1.2 25.54,-8 30.18,-19.7 2.44,-6.2 1.49,-13.6 -1.8,-19.3 59.14,37.3 131.94,52.4 201.74,59 24.2,2.3 54.2,-0.7 64.2,-22.8 3.2,-7.2 3.8,-15.6 8.4,-22 7.8,-11 23.9,-11.6 37.3,-9.3 13.3,2.3 27.5,6.3 39.9,0.9 16.8,-7.2 22.5,-27.6 27.9,-45.1 20.7,-66.8 66.9,-124.2 124,-164.7 57.1,-40.5 124.5,-64.9 193.3,-77.4 26.9,10.3 61,8 87.4,-3.4 10.9,-4.7 21.1,-11.1 32.7,-13.2 23.3,-4.1 45.3,10.1 66.7,20.2 40.8,19.4 87.9,25.3 132.3,16.6 -23.9,-14.8 -43.2,-36.8 -54.8,-62.3 36.4,33.5 73.9,67.6 119.4,87 45.6,19.3 101.7,21.4 141.9,-7.5 36.3,-26 53.3,-72.6 54.1,-117.3 -0.7,27.2 -35,50 -61.6,55.4 -26.6,5.3 -54.4,-3.7 -77.4,-18 -23.1,-14.3 -42.5,-33.6 -63,-51.5 -20.5,-17.8 -42.8,-34.6 -68.9,-42.2 -20.6,-6 -43.9,-6.7 -60.3,-20.6 -21.8,-18.5 -20.9,-54.6 -4.9,-78.4 21.1,-31.5 62.2,-45.2 100,-42 37.7,3.2 72.8,20.8 104.9,41 32.1,20.2 62.4,43.5 96.5,60.1 25.8,12.6 59.6,20.2 81.2,1.3 -5.3,-13.8 -0.1,-29.8 8.7,-41.8 8.8,-11.9 20.9,-20.9 31.7,-31.1 47.9,-45.2 69.7,-114.4 63.1,-179.9 -6.5,-65.5 -39.5,-126.8 -85.5,-173.8 -46,-47.1 -104.5,-80.6 -166.1,-103.9 -53.5,-20.2 -81.7,-78.9 -121.6,-119.8 -40,-41 -93.1,-75.8 -150.1,-70.7 44.3,40.7 63.3,98.5 70.4,158.3 2.2,18.2 3.8,38.4 -7.3,52.9 -10.4,13.6 -29.6,17.9 -46.6,15.7 -17,-2.3 -32.7,-9.8 -48.8,-16 -53.4,-20.5 -112.7,-25.6 -168.8,-14.4 -51.3,10.2 -98.9,33.3 -148.7,49.4 -49.7,16.1 -104.7,25 -153.6,6.5 18.8,13 40.1,34.3 30.2,54.9 -9.8,20.2 -38.7,17.4 -60.8,13.9 -41.9,-6.8 -85.3,-4.9 -126.5,5.5 -130.2,32.8 -236.69,147.7 -370.98,147.5 22,16.4 48.27,27.1 75.5,30.6 -128.98,34.7 -279.13,-19.3 -397.64,42.3 -37.28,19.3 -68.65,49.5 -107.69,65 -39.04,15.6 -92.32,10.1 -111.45,-27.3 16.84,28.3 61.17,28.1 89.88,11.9 28.72,-16.2 45.98,-47 57.33,-78 25.16,-68.5 27.92,-145.1 7.75,-215.3 -11.46,-39.9 36.38,-78.1 67.59,-105.5 31.22,-27.4 66.79,-50.9 90.58,-84.9 65.09,-93 26.16,-239.4 109.24,-316.8 42.12,-39.2 112.33,-57.1 124.63,-113.3 29.57,-3.4 61.11,-7.6 88.86,-18.4 27.74,-10.7 53.51,-29.8 66.01,-56.8 20.69,-44.7 2.47,-103.3 32.49,-142.4 17.3,-22.6 46.5,-32.4 74.3,-38.2 28.9,-6 62,-8.2 84.7,10.5 24.4,20.2 27,57.7 17.1,87.9 -2.3,6.7 -5,13.2 -8,19.5 35.7,-58.9 75.1,-115.6 106.8,-177.1 9.1,-17.7 18.5,-36.3 18,-56.2 -0.4,-16 -7.2,-31.3 -15.6,-44.9 -32.5,-52.8 -92.1,-87.9 -154.1,-90.5 -16.8,-59.8 -87.6,-91.3 -149.02,-82.6 -61.4,8.7 -114.02,47.7 -159.79,89.6 -45.77,41.8 -88.54,88.4 -142.85,118.3 -68.78,37.9 -149.83,45.6 -223.38,73.1 -73.55,27.5 -146.19,87.8 -145.36,166.3 10.01,-24.1 28.05,-46.1 45.42,-65.6 17.37,-19.5 43.41,-33.2 69.18,-29.1 25.76,4.2 47.85,30.8 41.1,56.1 -4.14,15.4 -17.12,26.7 -29.45,36.9 -59.78,49.7 -119.56,99.4 -179.34,149.1 -49.04,40.8 -98.89,82.1 -157.09,108.1 -66.42,29.8 -140.28,38.2 -209.28,61.3 -69,23.1 -138.01,67.3 -159.31,136.9 55.84,-61.2 138.95,-90.8 220.2,-74.8 34.95,6.8 69.56,21.5 104.87,16.8 69.48,-9.2 124.12,-90.4 191.93,-72.7 6.93,50.5 -27.42,99.3 -71.06,125.6 -43.64,26.4 -95.26,35.1 -145.34,44.7 -50.07,9.5 -101.66,21 -142.5,51.5 -41.51,31 -69.2,79.8 -115.54,102.9 -37.91,19 -84.04,18.4 -119.87,41 -33.64,21.3 -52.43,59.4 -66.14,96.8 -57.35,156.2 -52,334.1 12.42,487.3 -43.85,-43.3 -80.58,-93.6 -107.35,-149.2 -44.36,-92.1 -62.57,-195.3 -109.33,-286.2 -46.75,-90.9 -151.5,-175.7 -253.26,-166 94.19,80 149.99,191.8 173.56,313.1 -65.22,-83.9 -165.23,-139.9 -270.86,-151.6 -105.63,-11.7 -215.48,21 -297.52,88.5 -57.68,47.5 -100.75,110 -152.47,164 -51.72,53.9 -117.59,101.2 -192.26,103.8 -94.83,3.2 -180.09,-66.3 -249.47,-131 100.95,177.9 275.51,312.6 473.25,365.1 72.21,19.1 147.83,28 215.8,59 67.96,31.1 129.39,91.6 133.52,166.1 4.31,78 -52.74,144.4 -106.18,201.4 -93.61,99.8 -196.95,205.1 -331.7,229 -231.26,41 -457.38,-173.4 -685.19,-116.3 137.68,-14.8 273.72,37.1 397.09,100 110.09,56.1 216.47,122.1 332.66,162.9 90.88,46.3 195.13,68.2 297.69,69.3 17.89,0.2 35.75,-0.3 53.56,-1.2 -229.92,31.5 -389.87,-8.3 -501.75,-61.8 -117.23,-56.2 -232.7,-151.8 -447.29,-194.8 -134.38,-26.8 -250.41,-21.6 -329.22,-12.5 41.92,-47.2 105.47,-114.6 199.74,-130.9 85.38,-14.8 181.67,-5 265.21,17.1 167.08,44.1 348.61,114.6 504.82,40.7 68.81,-32.5 128.26,-108.8 103.62,-180.8 -32.26,-94.3 -162.34,-95.3 -261.77,-88.8 -567.96,37.4 -1142.2,-304 -1380.63,-820.9 -238.44,-516.8 -125.49,-1175.2 271.58,-1583.1 308.12,-316.4 745.84,-471.6 1178.27,-561.6"
         style="fill:#191970;fill-opacity:1;fill-rule:nonzero;stroke:none"
         transform="matrix(0.13333333,0,0,-0.13333333,0,2666.6667)" />
      <path
         id="path4"
         d="m 11629.5,5619.4 c -1251.1,197.1 -2315.17,1059.5 -3490.83,1494.5 374.19,-85.2 741.21,-214.8 1098.46,-356.1 644.85,-254.9 1277.87,-551.5 1953.07,-709.5 675.2,-158.1 1412.6,-166.5 2034,141.2 687.8,340.6 1147.2,1023.9 1432.7,1736.3 209.4,522.4 328.2,1160 -2.6,1615.3 -253.8,349.3 -706.7,491.4 -1135.7,539.8 -927,104.7 -1855.7,-126.4 -2758,-363.3 -902.28,-236.9 -1824.07,-483.7 -2754.1,-410.9 -930.03,72.7 -1904.64,578.3 -2313.75,1416.7 420.68,-572.8 1156.01,-850.3 1866.47,-868.2 710.47,-18 1406.24,191.1 2075.38,430.5 669.1,239.5 1332.2,513 2032.7,632.7 863.8,147.7 1767.1,52.1 2582.9,-267.9 449.5,-176.2 890.8,-436.6 1140.1,-850.1 261.3,-433.5 274.2,-977.8 169.7,-1473.1 -181.2,-858.6 -702.3,-1640.6 -1424.8,-2138.4 -722.6,-497.8 -1638.9,-706.1 -2505.7,-569.5"
         style="fill:#191970;fill-opacity:1;fill-rule:nonzero;stroke:none"
         transform="matrix(0.13333333,0,0,-0.13333333,0,2666.6667)" />
      <path
         id="path5"
         d="m 4407.38,6061.9 c 205.01,520.1 567.47,976.4 1045.98,1259.6 808.19,478.2 1815.49,463.9 2731.77,269.2 916.27,-194.7 1793.88,-553.3 2714.67,-724.9 513.6,-95.7 1054.3,-130.4 1549.1,38.8 676.1,231.3 1181,815.7 1526.1,1447.9 133.1,244 249.3,504.8 273.6,782.4 24.2,277.6 -115.6,576.1 -322.9,759.6 145.1,-102.8 535.3,-408.8 649.1,-930.4 101.5,-464.9 -73.8,-838.8 -261.4,-1238.8 -170.1,-362.7 -445,-948.8 -1070.1,-1291.3 -544.3,-298.2 -1074.6,-295 -1623.5,-203.6 -712.1,118.5 -1394.5,370.9 -2075.03,613.8 -680.54,242.9 -1370.4,479.2 -2087.26,563.2 -716.86,84 -1471.2,5.6 -2101.52,-349.9 -402.83,-227.2 -746.08,-580.1 -948.61,-995.6"
         style="fill:#191970;fill-opacity:1;fill-rule:nonzero;stroke:none"
         transform="matrix(0.13333333,0,0,-0.13333333,0,2666.6667)" />
      <path
         id="path6"
         d="m 6198.39,14737.1 c 228.4,44.7 536.72,79.9 897.92,49.7 520.04,-43.5 925.01,-203.8 1177.27,-328.4 -190.7,54.4 -488.23,115.5 -851.79,92.5 -68.03,-4.3 -279.45,-28.4 -540.61,-94.5 -617.99,-156.5 -1210.58,-514.7 -1518.09,-1073.2 -187.85,-341.1 -259.49,-736.4 -264.37,-1125.8 -9.17,-730.2 217.91,-1470.8 681.11,-2035.3 463.21,-564.5 1167.32,-953.3 1897.49,-962.9 -612.33,-52.1 -1241.57,126.4 -1735.25,492.4 -493.67,366 -847.4,916.2 -975.47,1517.2 -48.4,-36.7 -96.8,-73.4 -145.19,-110.2 -51.2,392.6 -53.11,791.6 -5.69,1184.7 -122.11,-9.5 -241.46,-52.2 -341.9,-122.3 85.54,401.8 272.66,781.5 539.14,1094.1 53.29,62.5 110.56,123.7 144.48,198.6 33.91,74.8 40.32,168.1 -7,235.3 -44.42,63 -144.7,85.2 -202.11,37 243.55,236.2 550.49,406.5 879.89,487.8 122.9,30.3 255.32,51.6 350.62,135 95.29,83.3 124.07,256.9 19.55,328.3"
         style="fill:#191970;fill-opacity:1;fill-rule:nonzero;stroke:none"
         transform="matrix(0.13333333,0,0,-0.13333333,0,2666.6667)" />
      <path
         id="path7"
         d="m 15607.4,9828.7 c -318.6,660.9 -900,928.9 -1272.6,1104.9 -801.7,378.5 -1556.5,336 -1939.5,284.2 332.7,45 609.7,73.1 815.2,91.1 10.8,0.9 216.1,18.5 492.7,23.4 0,0 493.3,8.6 496.1,-43.7 0.9,-16.6 -79,-22.5 -100.2,-81.7 -9.2,-25.7 -4.6,-51.7 0.3,-68.9 278.4,-34.2 512.5,-75.7 690.5,-111.5 568.8,-114.3 671.6,-191.3 668.2,-220.1 -2.6,-21.1 -62.9,-16.4 -93.2,-72.4 -29.6,-54.6 -7.2,-123.6 -2.4,-138.2 36.9,-113.2 150.9,-166.9 188,-185.5 327.2,-163.5 613.9,-562.6 580.5,-619.7 -9.3,-15.9 -47.3,-12.5 -98.8,-7.9 -41.1,3.6 -74.2,14.5 -96.6,23.9 -17.7,9.6 -49.9,24.5 -67.5,10.1 -88.1,-72 305,-775 236.7,-823.5 -15.8,-11.1 -58.8,10.6 -76.6,21.8 -29.9,18.8 -47.5,44.5 -56.6,60.3 -36.9,-344.5 -132.6,-681 -278.2,-989.5 164.9,577.7 169.5,1212.7 -86,1742.9"
         style="fill:#191970;fill-opacity:1;fill-rule:nonzero;stroke:none"
         transform="matrix(0.13333333,0,0,-0.13333333,0,2666.6667)" />
      <path
         id="path8"
         d="m 4117.64,6433.2 c 342.22,615.5 977.08,1036 1658.02,1215.6 171.57,45.3 345.87,76.4 521.63,95.2 -474.2,-102 -924.84,-310.7 -1297.99,-619.7 -326.61,-270.4 -596.53,-623.8 -707.43,-1033.1 -116.97,-431.7 -45.15,-910.5 190.9,-1290.4 236.04,-379.9 632.31,-655.9 1069.89,-748.5 517.08,-109.3 1056.37,30.9 1541.18,241.4 484.81,210.4 937.8,490.9 1429.76,684.1 491.95,193.1 1045.79,294.9 1548.4,131.3 -202.5,39.7 -434.02,52.1 -623.48,-29.5 -189.45,-81.7 -316.88,-336.2 -194.02,-501.9 110.41,-148.9 332.6,-136.9 516.45,-113 508.65,66 1025.85,107.6 1533.45,33.9 507.7,-73.8 1009.3,-271.2 1376.4,-629.4 -935.2,421.1 -1995.8,519.6 -2981.03,234.5 -277.58,-80.3 -561.16,-189.5 -846.72,-145.3 -190.09,29.4 -362.43,124.7 -541.8,194.2 -179.37,69.5 -384.39,112.7 -561.16,36.9 -176.77,-75.9 -291.04,-311.9 -182.37,-470.6 -592.8,-104.2 -1226.43,-150.4 -1825.05,-87.5 -598.62,62.8 -1203.95,316.3 -1558.73,802.6 -415.1,568.8 -408.51,1383.8 -66.3,1999.2"
         style="fill:#191970;fill-opacity:1;fill-rule:nonzero;stroke:none"
         transform="matrix(0.13333333,0,0,-0.13333333,0,2666.6667)" />
      <path
         id="path9"
         d="m 7920.75,5250.8 c 104.94,-25.5 214.92,2.8 317.72,35.9 482.9,155.5 949.04,422.2 1456.14,407.2 413.09,-12.3 793.79,-211 1168.49,-385.5 374.6,-174.5 837.4,-332.4 1243.6,-256.4 -362.5,-117.3 -758.2,-55.9 -1125.8,44.4 -367.6,100.3 -728.1,239.1 -1107.32,276.4 -563.74,55.4 -1125.36,-117.9 -1646.67,-339.5 -521.32,-221.6 -1023.35,-494.3 -1566.39,-655.5 -407.43,-121 -849.94,-174 -1262.19,-91.4 129.22,-0.4 259.66,9.1 387.37,19.1 200.39,15.7 413.74,36.3 571.6,160.7 127.95,100.8 196.9,245.6 262.31,394.8 -27.23,-64.9 17.85,-144 82.89,-170.8 65.05,-26.9 140.96,-11.3 203.22,21.6 172.94,91.1 254.28,290.5 317.39,475.5 63.11,185 131.8,385.8 294.48,494.1 268.89,179.2 654,11.7 922.91,190.8 -51.03,-134.8 -225.14,-162.6 -368.45,-177.9 -143.32,-15.2 -318.93,-70.6 -337.39,-213.6 -13.84,-107.1 81.16,-204.3 186.09,-229.9"
         style="fill:#191970;fill-opacity:1;fill-rule:nonzero;stroke:none"
         transform="matrix(0.13333333,0,0,-0.13333333,0,2666.6667)" />
    </g>
  </g>
</svg>
